<?xml version="1.0" encoding="UTF-8"?>
<svg viewBox="0 0 142 142" xmlns="http://www.w3.org/2000/svg">
<path d="m3.8177 104.31s0.84887-16.129 9.762-22.778c0 0 5.6592-6.6495 26.315-2.4052 0 0 32.54 4.8103 35.37-32.965 0 0 4.8102-14.431 13.158-25.608 8.9132-11.318 22.212-14.006 37.775-0.9904 0 0 17.685 15.563 10.186 46.688 0 0-1.131 22.071-31.408 34.521 0 0-11.035 0.99-23.627 11.46 0 0-14.997 17.684-47.112 18.958-0.1415 0-26.881 0.141-30.418-26.881z" clip-rule="evenodd" fill="#F7DB95" fill-rule="evenodd" opacity=".4"/>
<path d="m16.409 117.04c-1.1318 0.141-2.2637-0.707-2.4051-1.981l-11.601-70.739c-0.14148-1.2733 0.56591-2.4051 1.6977-2.6881l73.993-12.167c1.1319-0.1414 2.2637 0.7074 2.4052 1.9807l11.601 70.74c0.1415 1.273-0.5659 2.405-1.6977 2.688l-73.994 12.167z" fill="#797085"/>
<path d="m23.2 106.71c-1.1318 0.141-2.2637-0.849-2.4052-2.264l-9.6205-57.865c-0.283-1.4148 0.4244-2.8296 1.5562-2.971l57.44-9.3376c1.1318-0.1415 2.2637 0.8488 2.4051 2.2636l9.4791 57.723c0.283 1.4148-0.4244 2.8296-1.5562 2.9711l-57.299 9.4791z" fill="#FFF2E9"/>
<path d="m72.435 35.264c-1.2733 0.1415-2.4051-0.5659-2.5466-1.8392s0.5659-2.4052 1.8392-2.5467c1.2733-0.1414 2.4052 0.566 2.5466 1.8393 0.1415 1.1318-0.7074 2.2636-1.8392 2.5466z" fill="#FAFAFF"/>
<path d="m63.663 36.679c-1.2733 0.1415-2.4052-0.5659-2.5466-1.8392-0.1415-1.2733 0.5659-2.4051 1.8392-2.5466s2.4051 0.5659 2.5466 1.8392c0.1415 1.1319-0.7074 2.2637-1.8392 2.5466z" fill="#FAFAFF"/>
<path d="m54.892 38.094c-1.2733 0.1415-2.4051-0.5659-2.5466-1.8392-0.1415-1.2734 0.5659-2.4052 1.8392-2.5467 1.2733-0.1414 2.4052 0.5659 2.5467 1.8393 0.1414 1.1318-0.7074 2.2636-1.8393 2.5466z" fill="#FAFAFF"/>
<path d="m46.12 39.508c-1.2733 0.1415-2.4051-0.5659-2.5466-1.8392s0.5659-2.4051 1.8392-2.5466 2.4051 0.5659 2.5466 1.8392c0.1415 1.1318-0.7074 2.2637-1.8392 2.5466z" fill="#FAFAFF"/>
<path d="m37.348 40.923c-1.2733 0.1414-2.4052-0.5659-2.5467-1.8393-0.1414-1.2733 0.566-2.4051 1.8393-2.5466s2.4051 0.5659 2.5466 1.8392c0.1415 1.1319-0.7074 2.2637-1.8392 2.5467z" fill="#FAFAFF"/>
<path d="m28.576 42.338c-1.2733 0.1415-2.4051-0.5659-2.5466-1.8392s0.5659-2.4051 1.8392-2.5466 2.4051 0.5659 2.5466 1.8392c0.1415 1.1318-0.7074 2.2637-1.8392 2.5466z" fill="#FAFAFF"/>
<path d="m19.663 43.753c-1.2733 0.1414-2.4052-0.566-2.5466-1.8393-0.1415-1.2733 0.5659-2.4051 1.8392-2.5466s2.4051 0.5659 2.5466 1.8392c0.283 1.1319-0.5659 2.2637-1.8392 2.5467z" fill="#FAFAFF"/>
<path d="m10.892 45.168c-1.2733 0.1415-2.4052-0.5659-2.5466-1.8392s0.56592-2.4052 1.8392-2.5466c1.2733-0.1415 2.4051 0.5659 2.5466 1.8392 0.283 1.1318-0.5659 2.2637-1.8392 2.5466z" fill="#FAFAFF"/>
<path d="m72.152 33.849c-0.8489 0.1415-1.5563-0.2829-1.6978-0.9903l-0.8489-4.9518c-0.1414-0.7074 0.4245-1.4148 1.2734-1.5563 0.8488-0.1414 1.5562 0.283 1.6977 0.9904l0.8489 4.9518c0.1415 0.7073-0.4245 1.4147-1.2733 1.5562z" fill="#1E2222"/>
<path d="m63.38 35.264c-0.8489 0.1414-1.5563-0.283-1.6977-0.9904l-0.8489-4.9518c-0.1415-0.7074 0.4244-1.4147 1.2733-1.5562s1.5563 0.2829 1.6977 0.9903l0.8489 4.9518c0.1415 0.8489-0.4244 1.4148-1.2733 1.5563z" fill="#1E2222"/>
<path d="m54.609 36.82c-0.8488 0.1414-1.5562-0.283-1.6977-0.9904l-0.8489-4.9517c-0.1415-0.7074 0.4244-1.4148 1.2733-1.5563s1.5563 0.2829 1.6978 0.9903l0.8488 4.9518c0.1415 0.7074-0.4244 1.4148-1.2733 1.5563z" fill="#1E2222"/>
<path d="m45.837 38.235c-0.8489 0.1415-1.5563-0.2829-1.6978-0.9903l-0.8489-4.9518c-0.1414-0.7074 0.4245-1.4148 1.2734-1.5563 0.8488-0.1414 1.5562 0.283 1.6977 0.9904l0.8489 4.9518c0.1415 0.7074-0.4245 1.4147-1.2733 1.5562z" fill="#1E2222"/>
<path d="m37.065 39.65c-0.8488 0.1414-1.5562-0.283-1.6977-0.9904l-0.8489-4.9518c-0.1415-0.7074 0.4245-1.4147 1.2733-1.5562 0.8489-0.1415 1.5563 0.2829 1.6978 0.9903l0.8488 4.9518c0.1415 0.7074-0.4244 1.4148-1.2733 1.5563z" fill="#1E2222"/>
<path d="m28.294 41.065c-0.8489 0.1415-1.5563-0.2829-1.6978-0.9903l-0.8489-4.9518c-0.1414-0.7074 0.4245-1.4148 1.2734-1.5563 0.8488-0.1414 1.5562 0.283 1.6977 0.9904l0.8489 4.9517c0.1415 0.7074-0.4245 1.4148-1.2733 1.5563z" fill="#1E2222"/>
<path d="m19.522 42.479c-0.8488 0.1415-1.5562-0.2829-1.6977-0.9903l-0.8489-4.9518c-0.1415-0.7074 0.4245-1.4148 1.2733-1.5562 0.8489-0.1415 1.5563 0.2829 1.6978 0.9903l0.8488 4.9518c0.1415 0.8489-0.4244 1.4148-1.2733 1.5562z" fill="#1E2222"/>
<path d="m10.75 44.036c-0.84886 0.1415-1.5563-0.2829-1.6977-0.9903l-0.84887-4.9518c-0.14148-0.7074 0.42444-1.4148 1.2733-1.5562 0.8489-0.1415 1.5563 0.2829 1.6977 0.9903l0.8489 4.9518c0.1415 0.7074-0.4244 1.4148-1.2733 1.5562z" fill="#1E2222"/>
<g fill="#C6794D" opacity=".5">
<path d="m12.024 51.958-0.1415-0.1415 61.402-10.186 0.1415 0.2829-61.402 10.045z"/>
<path d="m74.281 47.206-61.429 10.072 0.0229 0.1396 61.429-10.072-0.0229-0.1397z"/>
<path d="m75.125 52.587-61.429 10.072 0.0228 0.1396 61.429-10.072-0.0229-0.1396z"/>
<path d="m14.712 68.228v-0.1414l61.402-10.045v0.1414l-61.402 10.045z"/>
<path d="m76.977 63.552-61.454 9.9228 0.0225 0.1397 61.454-9.9228-0.0225-0.1397z"/>
<path d="m77.962 68.931-61.46 9.8916 0.0225 0.1397 61.46-9.8917-0.0225-0.1396z"/>
<path d="m78.818 74.461-61.46 9.8916 0.0225 0.1397 61.46-9.8917-0.0225-0.1396z"/>
<path d="m79.794 79.807-61.454 9.9228 0.0226 0.1396 61.454-9.9227-0.0226-0.1397z"/>
<path d="m80.517 85.355-61.314 9.894 0.0225 0.1397 61.314-9.894-0.0225-0.1397z"/>
<path d="m81.361 90.737-61.314 9.8938 0.0226 0.14 61.314-9.8941-0.0225-0.1397z"/>
</g>
<path d="m21.927 55.92c-0.9904 1.9807-1.6978 4.1029-2.6881 6.0836h0.2829c0.4245-2.4052 1.6978-4.6688 3.3955-6.3666h-0.2829c-0.7074 1.4148-0.9904 2.9711-0.9904 4.3859 0 0.1414 0.1415 0 0.1415 0 1.9807-0.8489 3.3955-2.8296 3.8199-4.8103 0-0.1415-0.1414 0-0.2829 0-0.5659 0.8488-1.1318 1.6977-1.1318 2.8295 0 0.566 0.1414 1.2734 0.5659 1.5563 0.4244 0.283 0.8488 0.283 1.2733 0 0.7074-0.4244 0.9903-1.4148 1.1318-2.2636 0-0.1415-0.1415 0-0.2829 0-0.283 0.2829-0.566 0.7073-0.7074 1.1318-0.1415 0.4244-0.1415 0.8489-0.283 1.2733 0.9904 0.1415 2.2637-0.283 2.6881-1.1318 0.1415-0.283 0.1415-0.5659-0.1415-0.7074-0.4244-0.1415-1.1318 0.1415-1.5562 0.2829 0 0-0.1415 0.1415 0 0.1415 0.7073 0.283 1.5562 0.4244 2.2636 0.283 0.9904-0.283 1.6978-0.9904 2.4052-1.5563h-0.1415c-0.7074 0.7074-0.7074 1.5563-0.9904 2.4051 0 0.1415 0.1415 0 0.283 0 0.4244-0.4244 0.8489-0.8488 1.4148-1.4148h-0.283c0.5659 0.4245 1.2733 0.7074 1.9807 0.4245 0.7074-0.283 1.2733-0.8489 1.5563-1.4148 0.9903-1.5563 1.5563-3.537 2.4051-5.2347h-0.2829c-0.4245 1.4148-0.9904 2.6881-1.4148 4.1029-0.4245 1.1318-0.7074 2.5466-0.283 3.6784 0 0.1415 0.283 0 0.283 0 0-0.4244 0.1415-1.5563-0.4245-1.8392-0.1414-0.1415-0.4244-0.1415-0.7073 0-0.4245 0-0.9904 0.1415-1.4148 0.1415 0 0-0.283 0-0.1415 0.1414 1.1318 1.4148 3.1125 1.1319 4.5273 0.1415 0.4244-0.2829 0.7074-0.5659 0.9904-0.9903 0.1414-0.1415 0.4244-0.4245 0.1414-0.4245-0.4244 0-0.8488 0.566-1.1318 0.8489-0.1415 0.1415 0.1415 0.1415 0.1415 0 0.7074-0.5659 1.4148-1.1318 1.9807-1.6977h-0.283c0 0.5659-0.2829 1.1318-0.2829 1.6977 0 0.1415 0.1415 0 0.2829 0 0.8489-0.8489 1.8393-1.2733 2.6881-1.9807h-0.2829c-0.1415 0.5659-0.283 1.1318-0.283 1.6978 0 0.1414 0.1415 0 0.283 0 0.2829-0.283 0.7074-0.566 0.9903-0.8489 0 0 0.7074-0.5659 0.4245-0.7074 0 0-0.1415 0-0.1415 0.1415-0.7074 2.5466-0.7074 5.2347-0.9904 7.7813h0.283c-0.5659-0.5659-1.2733-1.2733-0.9904-2.1222 0.283-0.9903 1.6978-1.2733 2.5467-1.4148 0.1414 0 0.1414-0.1414 0-0.1414-0.9904 0.1414-2.1222 0.4244-2.6881 1.2733-0.566 0.9903 0.1414 1.9807 0.8488 2.5466h0.283c0.4244-2.5466 0.283-5.2347 0.9903-7.7814 0 0-0.1414 0-0.1414 0.1415l-0.7074 0.7074c-0.283 0.1415-0.4245 0.4245-0.7074 0.5659h0.2829c0.1415-0.5659 0.283-1.1318 0.283-1.6977 0-0.1415-0.1415 0-0.283 0-0.8488 0.8489-1.8392 1.2733-2.6881 1.9807h0.283c0-0.5659 0.283-1.1318 0.283-1.6978 0-0.1414-0.1415 0-0.283 0-0.5659 0.566-1.4148 1.1319-1.9807 1.6978h0.1415c0.2829-0.283 0.4244-0.4244 0.7074-0.7074 0.1414-0.1415-0.1415 0.1415-0.1415 0.283-0.1415 0.1414-0.283 0.2829-0.4245 0.4244-0.2829 0.2829-0.5659 0.4244-0.8488 0.7074-1.2733 0.7074-2.8296 0.7074-3.6785-0.4245l-0.1415 0.1415c0.566 0 1.2734-0.1414 1.8393 0 0.5659 0.1415 0.4244 1.2733 0.4244 1.6978h0.283c-0.283-1.2733 0-2.5466 0.4244-3.82 0.4244-1.2733 0.9904-2.5466 1.2733-3.9614 0-0.1414-0.1415 0-0.2829 0-0.8489 1.4148-1.2734 2.9711-2.1222 4.5274-0.4245 0.7074-0.8489 1.4147-1.4148 1.8392-0.7074 0.4244-1.4148 0.2829-2.1222-0.283h-0.283c-0.4244 0.4245-0.8488 0.8489-1.4148 1.4148h0.283c0.4244-0.8489 0.4244-1.6977 0.9904-2.4051 0.1414-0.1415-0.1415-0.1415-0.1415 0-0.5659 0.5659-1.2733 1.1318-1.9807 1.5562-0.7074 0.283-1.5563 0.1415-2.2637-0.1414v0.1414c0.283-0.1414 1.4148-0.7073 1.4148-0.1414 0.1415 0.4244-0.4244 0.8488-0.7074 0.9903s-0.5659 0.283-0.8489 0.283c-0.1414 0-0.2829 0-0.5659 0.1415-0.2829 0-0.4244 0-0.2829-0.283 0.1414-0.283 0.1414-0.5659 0.1414-0.8489 0.1415-0.4244 0.4245-0.8489 0.7074-1.1318h-0.2829c-0.1415 0.7074-0.4245 1.5563-0.9904 2.1222-0.4244 0.4244-0.8489 0.2829-1.2733-0.1415-0.9903-1.1318 0-3.1125 0.8489-3.9614h-0.283c-0.4244 1.9807-1.8392 3.9614-3.6784 4.6688h0.1415c0-1.5563 0.2829-2.9711 0.9903-4.3859 0-0.1414-0.1415 0-0.283 0-1.6977 1.6978-3.1125 3.9615-3.3954 6.5081 0 0.1415 0.1414 0 0.2829 0 0.9904-1.9807 1.6978-4.1029 2.6881-6.0836 0.4244-0.7074 0.1415-0.7074 0.1415-0.5659z" fill="#C6794D"/>
<path d="m41.027 54.222v0.2831c0 0.1415 0.2831 0.1415 0.2831 0v-0.2831c0-0.1415-0.2831-0.1415-0.2831 0z" fill="#C6794D"/>
<path d="m40.885 56.344c0.2831 0 0.2831 0.4246 0.2831 0.5661 0 0.1416 0.283 0 0.283 0 0-0.283 0-0.7076-0.4246-0.7076-0.1415 0-0.283 0-0.1415 0.1415-0.1415 0-0.1415 0 0 0z" fill="#C6794D"/>
<path d="m24.898 67.097c-0.4244 1.6977-1.1318 3.3955-2.4051 4.6688h0.2829c1.1318-1.5563 1.6978-3.3955 2.6881-5.0933h-0.2829c-0.283 0.566-0.4245 1.1319-0.4245 1.6978s0.1415 1.1318 0.1415 1.6977h0.1415c1.8392-0.4244 3.1125-1.8392 3.8199-3.5369 0-0.1415-0.1415 0-0.2829 0-0.4245 0.7074-0.7074 1.4147-0.7074 2.1221v2.2637c0 0.1415 0.2829 0 0.2829 0 0-0.7074-0.1415-1.4148 0-2.1222 0-0.8489 0.283-1.5562 0.7074-2.2636h-0.2829c-0.7074 1.5562-1.8393 2.971-3.6785 3.254h0.1415c0-0.5659-0.1415-1.1319-0.1415-1.6978s0.1415-1.1318 0.4244-1.6977c0-0.1415-0.1414 0-0.2829 0-0.9904 1.6977-1.5563 3.537-2.6881 5.0932 0 0.1415 0.1415 0 0.2829 0 1.2733-1.2733 1.9807-2.971 2.4052-4.8103 0.1415 0.283 0 0.4245-0.1415 0.4245z" fill="#C6794D"/>
<path d="m31.265 68.795c-0.1414-0.283 0.283-0.566 0.283-0.7074 0-0.283-0.5659-0.283-0.7074-0.283-0.283 0-0.7074 0.7074-0.8489 0.9904-0.2829 0.4244-0.4244 0.9903-0.4244 1.5562 0 0.1415 0.1415 0 0.283 0 0.4244-0.2829 0.9903-0.5659 1.4147-0.8489 0.566-0.4244 0.7074-1.2733 0.9904-1.8392 0-0.1415-0.1415 0-0.283 0-0.2829 0.4245-0.5659 0.8489-0.5659 1.2733 0 0.5659 0.283 1.1319 0.283 1.6978h0.1415c0.7074-0.4245 1.4147-0.9904 1.8392-1.8392 0.4244-0.8489 0.5659-1.6978 0.5659-2.6881h-0.283c0 0.5659 0 1.1318 0.1415 1.5562 0 0.283 0.1415 0.7074 0.1415 0.9904 0 0.1415 0.1415 0.4244 0 0.4244v0.1415c0 0.1415 0.4244 0.1415 0.5659 0.2829h0.4245 0.1414 0.283c0.1415-0.1414 0.1415-0.2829 0.1415-0.4244s0-0.5659 0.1414-0.5659h-0.2829c0.1415 0 0.1415 0 0.2829-0.1415-0.7073-0.2829-1.5562-0.7074-2.4051-0.7074v0.1415c1.2733-0.283 2.6881-0.283 3.9614-0.283 0 0 0.1415 0 0.1415-0.1414v-0.283c0-0.1415-0.1415 0-0.283 0-0.5659 0.5659-0.8488 1.1318-1.4148 1.6978 0.8489 0.1414 1.6978 0 2.4052-0.7074s1.1318-1.8393 1.2733-2.8296c0-0.1415-0.283 0-0.283 0-0.2829 0.9903-0.2829 1.9807-0.2829 3.1125h0.1415c0.9903-0.7074 2.4051-0.7074 3.3955-1.4148 0.1414-0.1415-0.1415-0.1415-0.1415 0-0.9904 0.7074-2.4052 0.7074-3.3955 1.4148h0.1415c0-0.9903 0-1.9807 0.2829-2.971h-0.2829c-0.1415 1.1318-0.566 2.5466-1.6978 3.1125-0.2829 0.1415-0.7074 0.283-0.9903 0.283-0.1415 0-0.4245 0-0.283-0.1415l0.283-0.283c0.2829-0.4244 0.7074-0.8489 0.9903-1.2733h-0.2829v0.283s0.1414 0 0.1414-0.1415c-1.4148 0-2.8295 0-4.1029 0.2829-0.1414 0-0.1414 0.1415 0 0.1415 0.7074 0 1.6978 0.283 2.2637 0.7074 0 0 0.283 0 0.283-0.1415h-0.283c-0.1415 0.1415-0.1415 0.283-0.1415 0.4245s0 0.5659-0.1414 0.5659h0.2829-0.1415-0.5659c-0.1415 0-0.2829 0-0.4244-0.1415v-0.4244c0-0.5659-0.1415-0.9904-0.283-1.5563 0-0.4244-0.1415-0.8489-0.1415-1.2733h-0.2829c0 0.8489-0.1415 1.6977-0.4245 2.4051-0.4244 0.8489-1.1318 1.4148-1.8392 1.9807h0.1415c0-0.5659-0.1415-0.9903-0.1415-1.5562-0.1415-0.5659 0.1415-0.9904 0.5659-1.4148h-0.2829c-0.1415 0.5659-0.4245 1.4148-0.9904 1.8392-0.4244 0.283-0.9903 0.5659-1.4148 0.8489h0.283c0-0.9904 0.4244-1.6978 0.9903-2.4052h-0.1414c1.1318 0-0.1415 0.566 0.2829 0.9904 0.4245 0.4244 0.7074 0.283 0.5659 0.283z" fill="#C6794D"/>
<path d="m47.11 82.235-17.685 18.109 76.116 2.689-6.508-20.798h-51.923z" fill="#6EA5BA"/>
<path d="m29.425 100.2s68.476-0.4246 73.852 0.99c3.962 0.991 4.245 11.602 4.245 11.602s-0.283 12.308-4.669 12.733c-4.3859 0.424-73.711 0.141-73.711 0.141s4.2444-6.366 4.3858-12.167c-0.1414-5.801-4.1028-13.299-4.1028-13.299z" fill="#2B4F68"/>
<path d="m30.416 102.32s63.241-0.424 68.193 0.849c3.8194 0.849 3.9614 9.62 3.9614 9.62s-0.283 10.328-4.3859 10.611-68.051 0.142-68.051 0.142 1.6977-3.537 1.6977-10.611c0.1415-7.64-1.4148-10.611-1.4148-10.611z" fill="#FFF2E9"/>
<path d="m41.31 96.524c-3.9614 1.4148-8.2058 1.9807-11.884 3.8195 1.4147 2.689 2.2636 6.367 2.1221 10.045 0 0 25.466-4.385 42.302-5.093 14.006-0.566 24.617-3.254 31.55-0.99 0.424-2.83-1.84-5.6593-3.396-7.7815h-60.694z" fill="#E8E1EF"/>
<path d="m44.281 107.7h2.2637 2.6881 1.6977 1.8393 4.1029 4.5273 2.4051 1.2733 1.2734 2.5466 0.5659 0.5659 1.2733c1.6978 0 3.3955 0.142 5.0933 0.142 1.6977 0.141 3.254 0.141 4.8102 0.141h1.1319 1.1318 2.2637 4.1029 3.3955 2.6881 2.2636s-0.8489 0-2.2636 0.142c-0.7074 0-1.6978 0-2.6881 0.141-0.9904 0-2.1222 0-3.3955 0.142h-4.1029-2.2637-2.2637c-1.5562 0-3.254 0-4.9517-0.142-1.6978 0-3.3955-0.141-5.0933-0.141h-1.2733-0.5659-0.5659-2.5466-1.2733-1.2733-2.4052-1.1318-1.1319-2.2636-4.1029-3.3955-2.6881c-1.4148-0.425-2.2637-0.425-2.2637-0.425z" fill="#C6794D"/>
<path d="m132.42 83.65-1.415-6.791-6.649 1.4148 3.254 10.611 4.81-5.2347z" fill="#A33C00"/>
<path d="m126.48 85.489s-0.424 19.383-15.704 27.164c-17.261 8.772-40.605-0.849-42.161-0.142-1.5563 0.708-3.6785 2.83-2.8296 4.103 0.8489 1.274 4.3858 9.762 19.241 14.997 14.996 5.235 52.63 0.99 54.752-32.682 0.707-10.611-7.923-16.412-7.923-16.412l-5.376 2.9711z" fill="#FCC107"/>
<path d="m66.21 114.63c-0.8489 0.849-0.8489 1.273-0.4245 1.98 0.8489 1.274 4.3859 9.621 19.241 14.856 14.996 5.234 52.63 0.99 54.61-32.54 0.566-10.469-7.922-16.27-7.922-16.27l-1.981 1.1319s11.601 26.174-15.421 39.756c-23.486 12.026-47.537-9.479-48.103-8.913z" fill="#F2A718"/>
<path d="m107.38 118.03c-1.132-2.688-6.083 1.274-13.582 1.415-7.3569 0.142-11.743-0.707-11.743-0.707s5.9422 2.688 11.177 3.678c8.4886 1.556 15.846-0.566 14.148-4.386z" fill="#FFDD01"/>
<path d="m110.35 100.06 7.782-11.176s0.283-2.6881 0.283-6.7909c0-3.9615-0.991-7.6399-0.991-7.6399l-8.63 12.309 1.556 13.298z" fill="#A44AA0"/>
<path d="m39.47 86.338s66.213-0.2829 69.325 0.566c2.405 0.5659 2.547 6.9324 2.547 6.9324s-0.142 7.3567-2.83 7.6397-69.042 0.142-69.042 0.142l1.8392-7.6402c0.8489-3.3955-1.8392-7.6399-1.8392-7.6399z" fill="#A44AA0"/>
<path d="m39.47 87.611s63.666-0.1415 66.778 0.5659c2.264 0.5659 2.406 5.6592 2.406 5.6592s-0.142 6.0835-2.689 6.3666c-2.405 0.141-66.495 0-66.495 0s1.4148-1.8393 1.8392-6.2252c0.4245-5.0932-1.8392-6.3665-1.8392-6.3665z" fill="#FFE7D4"/>
<path d="m39.47 86.338 24.193-11.884 53.904 0.1415-8.63 12.309-69.467-0.5659z" fill="#CC75CC"/>
<path d="m108.94 86.904 8.63-12.309-2.547-0.1415-9.055 12.309 2.972 0.1414z" fill="#E3B0EA"/>
<path d="m51.92 91.997h2.2637 2.6881 1.6977 1.8393 4.1029 4.5273 2.4051 1.2733 1.2733 2.5467 0.5659 0.5659 1.2733c1.6978 0 3.3955 0.1415 5.0933 0.1415 1.6977 0.1415 3.254 0.1415 4.8102 0.1415h1.1319 1.1318 2.2637 4.1028 3.3953 2.688 2.264s-0.849 0-2.264 0.1415c-0.707 0-1.697 0-2.688 0.1415-0.9901 0-2.1219 0-3.3953 0.1414h-4.1028-2.2637-2.2637c-1.5562 0-3.254 0-4.9517-0.1414-1.6978 0-3.3955-0.1415-5.0933-0.1415h-1.2733-0.5659-0.5659-2.5466-1.2733-1.2734-2.4051-1.1318-1.1319-2.2636-4.1029-3.3955-2.6881c-1.4148-0.5659-2.2637-0.4245-2.2637-0.4245z" fill="#C6794D"/>
<path d="m106.25 87.894c1.132 3.8199 1.981 8.9132-0.141 12.45 1.556-0.283 2.122-3.3951 2.405-4.8098 0.283-2.1222 0.142-4.8103-0.849-6.5081-0.424-0.2829-1.415-1.1318-1.415-1.1318z" fill="#C6794D"/>
<path d="m51.638 107.56c-1.4148 1.273-4.6688 7.923-3.1126 11.601 0.283-0.424 1.6978-0.99 2.1222-1.415 0.5659 0.425 2.9711 0.991 3.537 1.415-1.4148-4.81 1.6977-10.894 3.1125-11.743h-5.6591v0.142z" fill="#6EA5BA"/>
<path d="m53.76 119.02c-0.1415-5.66-0.283-7.782 3.254-11.177-0.4245-0.142-1.4148-0.425-1.8392-0.283-1.9807 3.678-2.9711 7.357-1.8393 11.035l0.4245 0.425z" fill="#530254" opacity=".2"/>
<path d="m62.673 78.84c17.402 0.1415 41.736 0 41.736 0l10.611-4.3858-40.746 0.7074-11.601 3.6784z" fill="#ED8707" opacity=".3"/>
<path d="m66.351 70.492-3.9614 8.2058 1.1318 0.5659 6.0836-6.225-3.254-2.5467z" fill="#E8E1EF"/>
<path d="m101.01 70.492 3.961 8.2058-0.99 0.5659-6.2253-6.225 3.2543-2.5467z" fill="#E8E1EF"/>
<path d="m63.097 78.84 4.3858-6.9325 2.1222 1.1318-6.0836 6.2251-0.4244-0.4244z" fill="#797085" opacity=".4"/>
<path d="m104.41 78.84-4.386-6.9325-2.1218 1.1318 6.0838 6.2251 0.424-0.4244z" fill="#797085" opacity=".4"/>
<path d="m84.178 20.692h-1.1318v5.0933h1.1318v-5.0933z" fill="#797085"/>
<path d="m86.583 21.541c0 0.5659-0.566 1.1318-1.1319 1.1318h-3.6784c-0.5659 0-1.1319-0.5659-1.1319-1.1318s0.566-1.1319 1.1319-1.1319h3.6784c0.5659-0.1414 1.1319 0.4245 1.1319 1.1319z" fill="#797085"/>
<path d="m109.83 57.316c3.365-14.46-5.629-28.91-20.089-32.276-14.46-3.3655-28.91 5.6282-32.276 20.088-3.3656 14.46 5.6282 28.91 20.088 32.276 14.46 3.3656 28.91-5.6282 32.276-20.088z" fill="#2B4F68"/>
<path d="m107.8 50.968c0 13.158-10.753 23.91-23.91 23.91s-23.91-10.752-23.91-23.91c0-13.158 10.752-23.91 23.91-23.91s23.91 10.752 23.91 23.91z" fill="#E8E1EF"/>
<path d="m103.9 55.956c2.612-11.185-4.3382-22.37-15.523-24.982-11.185-2.6119-22.37 4.3381-24.982 15.523-2.612 11.185 4.338 22.37 15.523 24.982 11.185 2.6119 22.37-4.3381 24.982-15.523z" fill="#FFF2E9"/>
<path d="m97.477 28.19s6.9323 5.0932 8.6303 8.3472c1.839 3.254 3.678 8.6302 3.678 8.6302l-37.067 30.701s-7.6399-4.6688-9.9035-7.6399c-2.4052-3.1125-4.8103-9.0547-4.8103-9.0547l39.473-30.984z" fill="#fff" opacity=".3"/>
<path d="m103 50.968c0 0.5661-0.424 0.9907-0.991 0.9907-0.566 0-0.99-0.4246-0.99-0.9907s0.424-0.9907 0.99-0.9907c0.567 0 0.991 0.4246 0.991 0.9907z" fill="#530254"/>
<path d="m66.776 50.968c0 0.5661-0.4246 0.9907-0.9907 0.9907s-0.9907-0.4246-0.9907-0.9907 0.4246-0.9907 0.9907-0.9907 0.9907 0.4246 0.9907 0.9907z" fill="#530254"/>
<path d="m83.895 32.576c0.5661 0 0.9907 0.4246 0.9907 0.9907s-0.4246 0.9907-0.9907 0.9907-0.9907-0.4246-0.9907-0.9907 0.4246-0.9907 0.9907-0.9907z" fill="#530254"/>
<path d="m83.895 68.653c0.5661 0 0.9907 0.4246 0.9907 0.9907s-0.4246 0.9907-0.9907 0.9907-0.9907-0.4246-0.9907-0.9907 0.4246-0.9907 0.9907-0.9907z" fill="#530254"/>
<path d="m93.374 34.84c0.283 0.4246 0.283 0.9907-0.1416 1.2738-0.4245 0.283-0.9906 0.283-1.2737-0.1416-0.283-0.4245-0.283-0.9907 0.1415-1.2737 0.4246-0.4246 0.9907-0.2831 1.2738 0.1415z" fill="#530254"/>
<path d="m75.548 66.248c0.283 0.4246 0.283 0.9907-0.1415 1.2737-0.4246 0.2831-0.9907 0.2831-1.2738-0.1415-0.283-0.4246-0.283-0.9907 0.1415-1.2737 0.4246-0.2831 0.9907-0.2831 1.2738 0.1415z" fill="#530254"/>
<path d="m69.04 59.457c0.283 0.4246 0.283 0.9907-0.1415 1.2737-0.4246 0.2831-0.9907 0.2831-1.2738-0.1415-0.283-0.4246-0.283-0.9907 0.1416-1.2737 0.283-0.2831 0.8491-0.2831 1.2737 0.1415z" fill="#530254"/>
<path d="m93.516 66.248c0.283 0.4246 0.283 0.9907-0.1416 1.2738-0.4245 0.283-0.9907 0.283-1.2737-0.1416-0.2831-0.4246-0.2831-0.9907 0.1415-1.2737 0.4246-0.4246 0.9907-0.2831 1.2738 0.1415z" fill="#530254"/>
<path d="m100.31 59.457c0.283 0.4246 0.283 0.9907-0.142 1.2737-0.4243 0.2831-0.9904 0.2831-1.2735-0.1415-0.283-0.4246-0.283-0.9907 0.1416-1.2737 0.283-0.2831 0.8491-0.2831 1.2739 0.1415z" fill="#530254"/>
<path d="m100.31 41.348c0.283 0.4246 0.283 0.9907-0.142 1.2737-0.4243 0.2831-0.9904 0.2831-1.2735-0.1415-0.283-0.4246-0.283-0.9907 0.1416-1.2738 0.283-0.283 0.8491-0.283 1.2739 0.1416z" fill="#530254"/>
<path d="m75.548 34.84c0.283 0.4246 0.283 0.9907-0.1415 1.2738-0.4246 0.283-0.9907 0.283-1.2738-0.1416-0.283-0.4245-0.283-0.9907 0.1415-1.2737 0.4246-0.4246 0.9907-0.2831 1.2738 0.1415z" fill="#530254"/>
<path d="m69.04 41.348c0.283 0.4246 0.283 0.9907-0.1415 1.2737-0.4246 0.2831-0.9907 0.2831-1.2738-0.1415-0.283-0.4246-0.283-0.9907 0.1416-1.2738 0.283-0.283 0.8491-0.283 1.2737 0.1416z" fill="#530254"/>
<path d="m82.763 49.695s-0.7074-9.3376-0.7074-11.46c0-1.2733 1.4148-3.6785 1.4148-3.6785s1.5563 1.8393 1.5563 3.6785-0.8489 11.46-0.8489 11.46h-1.4148z" fill="#A44AA0"/>
<path d="m83.329 48.28s-0.2829-8.9131-0.2829-10.045c0-0.8488 0.5659-2.2636 0.5659-2.2636s0.5659 1.1318 0.5659 2.2636c0 1.1319-0.283 10.045-0.283 10.045h-0.5659z" fill="#FFF2E9"/>
<path d="m82.338 51.959s-6.791 0.5659-8.7717 0.5659c-1.2733 0-3.6784-1.4148-3.6784-1.4148s1.8392-1.5562 3.6784-1.5562 8.7717 0.9903 8.7717 0.9903v1.4148z" fill="#A44AA0"/>
<path d="m82.48 51.676s-6.3665 0.2829-7.9228 0.2829c-0.9903 0-2.8296-0.8488-2.8296-0.8488s1.4148-0.9904 2.8296-0.9904 7.9228 0.5659 7.9228 0.5659v0.9904z" fill="#FFF2E9"/>
<path d="m86.158 51.251c0 1.4148-1.1319 2.5466-2.5467 2.5466-1.4147 0-2.5466-1.1318-2.5466-2.5466s1.1319-2.5466 2.5466-2.5466c1.4148 0.1414 2.5467 1.2733 2.5467 2.5466z" fill="#A44AA0"/>
<path d="m85.31 51.251c0 0.8489-0.7074 1.5563-1.5563 1.5563s-1.5563-0.7074-1.5563-1.5563 0.7074-1.5563 1.5563-1.5563 1.5563 0.7074 1.5563 1.5563z" fill="#CC75CC"/>
<path d="m64.088 19.843s3.9614-1.4147 5.3762-3.254c2.1222-2.8296 2.8296-4.6688 4.5273-5.8006 2.1222-1.2733 5.6592-2.1222 9.7621-1.9807 3.9614 0.14147 10.328 0.84887 11.884 2.6881 1.5563 1.8392 1.5563 2.971 2.6881 4.8103 1.1319 1.9807 3.5374 3.6784 3.5374 3.6784l-0.425 0.9904s-2.688-2.4052-3.3953-3.537c-1.1319-1.6977-1.1319-4.6688-3.9615-5.9421-2.8295-1.4148-7.9228-1.4148-10.469-1.4148-2.4051 0-6.6495 0.1415-9.0546 1.5563-2.9711 1.8392-2.1222 2.971-4.6689 5.3762-1.5562 1.5562-4.9517 3.254-4.9517 3.254l-0.8489-0.4245z" fill="#3F6D77"/>
<path d="m64.654 18.145c-0.7076 0.2831-0.9907 1.1322-0.7076 1.6983l2.406-1.1322c-0.1416-0.5661-0.9907-0.8492-1.6984-0.5661z" fill="#797085"/>
<path d="m68.191 18.711c0.283 0.5659 0.1415 1.1318-0.4244 1.4148l-2.9711 1.6977c-0.5659 0.283-1.1318 0.1415-1.4148-0.4244-0.2829-0.5659-0.1415-1.1318 0.4244-1.4148l2.9711-1.6977c0.4244-0.283 1.1318 0 1.4148 0.4244z" fill="#797085"/>
<path d="m103 18.287c-0.566-0.4246-1.415-0.2831-1.84 0.283l2.123 1.5568c0.425-0.7076 0.283-1.4153-0.283-1.8398z" fill="#797085"/>
<path d="m104.13 21.541c-0.283 0.5659-0.99 0.7074-1.415 0.4244l-2.9706-1.8392c-0.5659-0.283-0.7074-0.9904-0.4244-1.4148 0.2829-0.5659 0.99-0.7074 1.415-0.4244l2.971 1.6977c0.566 0.283 0.849 0.9904 0.424 1.5563z" fill="#797085"/>
<path d="m68.049 18.428-4.3858 2.4052c-3.9614 2.1222-5.3762 7.0739-3.254 11.035 0 0 3.537-1.1318 9.4791-4.3858 6.0836-3.254 9.0546-5.6592 9.0546-5.6592-2.1222-4.1029-7.0739-5.5177-10.894-3.3955z" fill="#6EA5BA"/>
<path d="m68.049 18.428-0.9904 0.5659c2.9711-0.4244 4.1029 2.9711 3.1125 4.9518-1.2733 2.6881-6.508 5.5177-10.469 6.508 0.1415 0.4245 0.4244 0.9904 0.5659 1.4148 0 0 3.537-1.1318 9.4791-4.3858 6.0836-3.254 9.0547-5.6592 9.0547-5.6592-1.9807-4.1029-6.9325-5.5177-10.752-3.3955z" fill="#3F6D77" opacity=".4"/>
<path d="m67.059 20.692c-1.6978-0.5659-4.1029 1.2733-5.0933 2.6881-0.8488 1.1318-1.6977 3.6785 0.566 3.254 1.5562-0.2829 2.971-1.6977 4.1028-2.6881 0.566-0.4244 2.1222-2.6881 0.4245-3.254z" fill="#fff" opacity=".5"/>
<path d="m103.84 20.55-4.3856-2.4052c-3.9614-2.1222-8.7717-0.7074-10.894 3.254 0 0 2.8296 2.2637 8.9132 5.5177 6.0833 3.254 9.7623 4.5273 9.7623 4.5273 1.98-3.8199 0.424-8.7716-3.396-10.894z" fill="#6EA5BA"/>
<path d="m103.84 20.55-0.99-0.5659c1.981 2.2637-0.283 5.0933-2.405 5.3762-2.8298 0.4245-8.206-2.5466-11.036-5.2347-0.2829 0.4244-0.5659 0.8489-0.8489 1.2733 0 0 2.8296 2.2637 8.9132 5.5177 6.0833 3.254 9.7623 4.5273 9.7623 4.5273 1.98-3.9614 0.424-8.7717-3.396-10.894z" fill="#3F6D77" opacity=".4"/>
<path d="m101.44 21.116c-0.424-1.6977-3.2538-2.6881-5.0931-2.8296-1.4148-0.1415-3.9614 0.5659-2.4051 2.2637 0.9903 1.1318 3.1125 1.6977 4.5273 1.9807 0.7074 0.1415 3.3959 0.283 2.9709-1.4148z" fill="#fff" opacity=".5"/>
<path d="m32.255 82.942 8.3472 1.5563h1.1319v-3.82h-1.1319l-8.3472 1.5563v0.7074z" fill="#FFCF9C"/>
<path d="m32.255 82.942 9.4791 0.8489v-2.2637l-9.4791 0.7074v0.7074z" fill="#ECBA84"/>
<path d="m41.451 83.508-7.6398-0.7074-1.5563 0.2829 8.6302 1.5563 0.5659-0.1415v-0.9903z" fill="#C6794D"/>
<path d="m33.953 83.226-3.6785-0.566 4.9518-0.9903-0.7074 0.8489-0.5659 0.7074z" fill="#A44AA0"/>
<path d="m30.274 82.659 3.9614 0.283-0.1414 0.4244-3.82-0.7074z" fill="#530254"/>
<path d="m30.274 82.518 4.6688-0.4245 0.283-0.4244-4.9518 0.8489z" fill="#C499C8"/>
<path d="m41.451 84.499v-2.9711s-0.8489 0-0.8489-0.4244c0-0.4245 0.8489-0.4245 0.8489-0.4245h49.376l0.8488 0.8489v1.8392l-0.8488 1.1319h-49.376z" fill="#FFD26F"/>
<path d="m91.676 81.528v1.8392h-50.366s-0.9904-0.1414-1.1319-0.8488c0-0.8489 0.9904-0.9904 0.9904-0.9904h50.508z" fill="#FFB901"/>
<path d="m90.827 84.499 0.8488-1.1319h-50.366s-0.8488 0-0.8488 0.5659 0.8488 0.566 0.8488 0.566h49.518z" fill="#F59100"/>
</svg>
