<?xml version="1.0" encoding="UTF-8"?>
<svg fill="none" viewBox="0 0 138 138" xmlns="http://www.w3.org/2000/svg">
<path d="m123.08 119.58s-14.224 12.582-27.626 14.497c0 0-20.241 6.291-32.823-2.051 0 0-16.822-5.197-12.445-27.216 0 0-4.2397-16.002-12.856-12.856 0 0-18.053-2.1882-22.566-6.0176 0 0-9.847-9.1631-12.172-35.969 0 0 1.3676-18.326 9.2998-30.225 0 0 9.0264-13.403 22.976-17.506 0 0 30.225-8.8896 33.644 24.07 0 0-3.0088 21.198 3.9661 33.37 0 0 13.54 9.2999 28.721 26.532 0 0 58.671-11.625 21.882 33.37z" clip-rule="evenodd" fill="#64C8FF" fill-rule="evenodd" opacity=".4"/>
<path d="m84.377 59.264c-3.8294 10.941 2.7353 23.113 14.497 27.216 11.761 4.1029 24.48-1.3676 28.31-12.309 3.829-10.941-2.736-23.113-14.497-27.216-11.899-4.1029-24.481 1.3676-28.31 12.309z" fill="#B9D12E"/>
<path d="m123.9 55.024c-3.008-2.4617-5.88 0.1368-5.744 2.5985 0.137 2.0514 4.377 5.4705 1.915 12.309-2.051 6.0175-6.154 10.394-16.001 10.804-6.9752 0.2736-14.36-3.419-18.6-11.625-2.1882-4.2397-1.9146-6.2911-1.7779-7.3852-2.3249 10.257 4.1029 21.198 15.181 25.028 11.761 4.1029 24.48-1.3676 28.31-12.309 0.82-2.4617 1.231-4.9234 1.094-7.3852-0.137-2.5985-1.641-9.0263-4.377-12.035z" fill="#3E6B12" opacity=".1"/>
<path d="m109.4 56.255c-3.145-0.2735-7.932-2.0514-5.06-5.744 2.599-3.5559 12.035-2.325 13.813 1.7779 1.231 2.7352-4.103 4.3764-8.753 3.9661z" fill="#3E6B12" opacity=".3"/>
<path d="m85.608 56.255c4.7867-8.7529 16.001-12.992 26.669-9.4367-2.599 0.5471-13.403 0.2735-11.078 6.9749 2.051 5.7441 10.12 5.197 12.035 7.1117s2.188 4.7867 1.641 6.2911c-1.368 3.9661-7.112 8.3425-15.317 6.5646-7.522-1.6411-14.634-10.257-13.95-17.506z" fill="#E0E560"/>
<path d="m110.22 52.562c-0.957-0.1367-2.462-0.6838-1.641-1.7779 0.82-0.9573 3.829-0.547 4.376 0.6838 0.411 0.9574-1.231 1.3677-2.735 1.0941z" fill="#3E6B12" opacity=".7"/>
<g opacity=".5">
<path d="m97.096 55.024c0.1368 1.6411-0.9573 3.0088-2.4617 3.1455-1.5044 0.1368-2.7353-1.0941-2.872-2.7352-0.1368-1.6412 0.9573-3.0088 2.4617-3.1456 1.5044-0.1367 2.7353 1.0941 2.872 2.7353z" fill="#fff"/>
</g>
<g opacity=".5">
<path d="m97.37 59.674c0 0.6841-0.4104 1.3681-1.0945 1.3681-0.684 0-1.2313-0.5472-1.3681-1.2313 0-0.684 0.4105-1.3681 1.0945-1.3681 0.6841-0.1368 1.2313 0.4105 1.3681 1.2313z" fill="#fff"/>
</g>
<path d="m103.8 53.793s0.274 0.1368 0.684 0.2735c0.41 0.1368 0.957 0.4103 1.778 0.6839 0.41 0.1367 0.684 0.2735 1.231 0.4102 0.273 0 0.41 0.1368 0.684 0.1368 0.273 0 0.41 0.1368 0.683 0.1368 0.274 0 0.411 0.1367 0.684 0.1367 0.274 0 0.411 0 0.684 0.1368h1.504c0.547 0 0.958-0.1368 1.368-0.1368 0.274 0 0.41-0.1367 0.684-0.1367h0.273c0.137 0 0.274 0 0.274-0.1368 0.137 0 0.273-0.1368 0.273-0.1368 0.137 0 0.137-0.1367 0.274-0.1367s0.137-0.1368 0.274-0.1368c0.136 0 0.136-0.1367 0.273-0.1367 0.137-0.1368 0.41-0.1368 0.547-0.2736 0.137 0 0.137-0.1367 0.274-0.1367 0.136 0 0.136-0.1368 0.273-0.1368 0.274-0.2735 0.547-0.4103 0.684-0.6838 0.137-0.1368 0.137-0.2735 0.273-0.2735l0.274-0.2736c0.137-0.1367 0.274-0.2735 0.274-0.4103 0.136-0.1367 0.136-0.2735 0.136-0.2735v0.1368 0.547c0 0.2736-0.136 0.5471-0.273 0.8206s-0.411 0.6838-0.684 0.9574c-0.137 0.1367-0.274 0.2735-0.41 0.547l-0.137 0.1368-0.137 0.1367c-0.137 0.1368-0.137 0.1368-0.273 0.2736-0.137 0.1367-0.274 0.1367-0.274 0.1367-0.137 0-0.273 0.1368-0.273 0.1368-0.274 0.1367-0.411 0.2735-0.684 0.2735-0.137 0-0.274 0.1368-0.411 0.1368h-0.273c-0.274 0.1367-0.547 0.1367-0.821 0.1367-0.273 0-0.547 0.1368-0.82 0.1368h-0.821-0.82c-0.274 0-0.547 0-0.821-0.1368-0.273 0-0.547-0.1367-0.821-0.1367-0.273 0-0.547-0.1368-0.82-0.2736-0.274-0.1367-0.547-0.1367-0.684-0.2735-0.273-0.1367-0.41-0.1367-0.684-0.2735-0.41-0.1368-0.82-0.4103-1.094-0.6838-0.684-0.4103-1.231-0.8206-1.504-1.2309-0.547 0.2735-0.821 0-0.821 0z" fill="#E0E560"/>
<path d="m109.95 52.289s2.188-4.3765 4.786-6.1544c3.283-2.3249 5.608-0.4103 5.608-0.4103l-0.684-3.9661s-2.872-0.4103-5.334 0.9574c-3.966 2.3249-5.06 9.2998-5.06 9.2998l0.684 0.2736z" fill="#7C201E"/>
<path d="m110.09 52.152s2.189-4.3764 4.787-6.1543c3.282-2.325 5.607-0.4103 5.607-0.4103l-0.547-1.9147s-2.872-0.4103-5.334 0.9573c-3.966 2.325-5.197 7.2485-5.197 7.2485l0.684 0.2735z" fill="#600606"/>
<path d="m43.895 43.673-5.0602-5.0602-4.9235 4.9235 8.7528 7.2484 1.2309-7.1117z" fill="#A33C00"/>
<path d="m39.655 48.46s10.257 16.959 1.3676 32.139c-10.12 17.095-35.558 21.608-36.516 23.113-0.95734 1.504-1.6412 4.513-0.27352 5.06s9.1631 6.018 24.754 2.325c15.864-3.693 45.952-28.036 29.267-58.261-5.197-9.4367-15.864-9.8469-15.864-9.8469l-2.7352 5.4705z" fill="#FCC107"/>
<path d="m3.8235 106.72c-0.27353 1.23 0 1.641 0.82058 1.914 1.3676 0.547 9.1632 5.881 24.754 2.188 15.864-3.692 45.952-28.173 29.267-58.124-5.197-9.4366-15.864-9.7101-15.864-9.7101l-1.0941 2.0514s24.344 16.138 8.6161 42.807c-13.813 23.387-46.363 18.053-46.499 18.874z" fill="#F2A718"/>
<path d="m41.296 87.026c-2.4617-1.6412-4.6499 4.5131-10.941 8.616s-10.531 5.7445-10.531 5.7445 6.5647-0.958 11.625-3.0092c8.069-3.1456 13.266-9.0264 9.8469-11.351z" fill="#FFDD01"/>
<path d="m73.162 109.87c-4.2397 0-8.3426-0.547-11.351-1.641-3.1456-1.094-4.9235-2.735-4.9235-4.513 0-0.411-0.2735-36.516 0-51.286 0.2735-12.172 1.6412-14.36 3.5558-17.369 0.4103-0.6838 0.9574-1.5043 1.3677-2.4617 2.4617-4.7867 2.5985-13.813 2.5985-13.95v-0.4103h17.916v0.4103c0 0.1368-0.2735 9.1631 2.1882 13.95 0.5471 0.9574 0.9574 1.6412 1.3677 2.4617 1.9146 3.0088 3.2823 5.197 3.5558 17.369 0.2735 12.582 0.1367 44.722 0.1367 51.012v0.274c0 1.778-1.7779 3.282-4.9234 4.513-3.2823 0.957-7.2485 1.641-11.488 1.641zm-7.9323-90.811c0 1.9147-0.4103 9.4366-2.7352 13.95-0.5471 0.9573-0.9574 1.7779-1.5044 2.4617-1.7779 2.8721-3.1456 5.0603-3.4191 16.959-0.2735 14.77 0 50.876 0 51.286 0 2.598 6.1543 5.333 15.454 5.333s15.454-2.735 15.454-5.333v-0.274c0-6.291 0.1368-38.43-0.1367-51.012-0.2735-11.898-1.5044-14.086-3.4191-16.959-0.4103-0.6838-0.9573-1.5044-1.5044-2.4617-2.1882-4.5132-2.1882-12.035-2.1882-13.95h-16.001z" fill="#9D9EE2"/>
<path d="m87.659 51.878c-0.2735-13.813-2.325-13.54-4.65-18.19-2.3249-4.6499-2.872-12.992-2.872-12.992h-14.223s-0.2736 8.4793-2.7353 12.992c-2.325 4.65-4.3764 4.3764-4.6499 18.19-0.2736 13.813 0 50.74 0 50.74 0 2.872 6.5646 5.333 14.634 5.333s14.634-2.325 14.634-5.333c0-0.137 0.1368-37.884-0.1367-50.74z" fill="#B6BFF2"/>
<g opacity=".5">
<path d="m65.64 35.193c-1.2308 0-2.7352 0.1368-3.419 6.9749-0.6839 6.8382 0.547 13.54 0.547 13.54s-0.547-3.4191 0.5471-8.8896c0.9573-4.9235 4.2396-7.7955 4.2396-9.2999 0-1.3676-1.0941-2.325-1.9147-2.325z" fill="#fff"/>
</g>
<path d="m86.018 48.596h-25.985c-0.1368 1.6412-0.2736 3.5559-0.2736 6.0176-0.2735 13.54 0 46.362 0 46.362 0 2.872 5.8808 5.197 13.266 5.197s13.266-2.325 13.266-5.197c0-0.136 0.1367-33.78 0-46.362 0-2.325-0.1368-4.3764-0.2736-6.0176z" fill="#F9FCFF" opacity=".9"/>
<path d="m86.018 48.596c0 2.7353-5.8808 4.9235-12.992 4.9235-7.1116 0-12.992-2.1882-12.992-4.9235s5.8808-4.9235 12.992-4.9235c7.1117 0 12.992 2.325 12.992 4.9235z" fill="#fff"/>
<path d="m88.89 52.562c-0.2736-13.813-2.325-13.54-4.65-18.189-2.325-4.65-2.872-12.992-2.872-12.992h-9.0264c0.4103 2.5985 1.0941 5.4705 2.1882 7.6587 2.325 4.6499 4.3765 4.3764 4.65 18.19 0.2735 12.856 1.6411 46.363 0.1367 50.739-1.6411 4.5134-7.6587 7.2484-12.582 6.5644-6.7014-0.82-7.6588-3.145-8.2058-3.282 0 0.273-0.1368 2.735-0.1368 2.735 0 2.872 7.9323 4.65 16.001 4.65s14.634-2.325 14.634-5.334c0-0.273 0.1368-38.02-0.1367-50.739z" fill="#C0C3E2" opacity=".3"/>
<path d="m73.026 19.192c-9.4367 0.1367-11.078-2.7353-11.078-2.7353v4.1029c0 2.0514 4.9234 3.6926 11.078 3.6926 6.1543 0 11.078-1.6412 11.078-3.6926v-4.1029s-1.6412 2.5985-11.078 2.7353z" fill="#37C6B7"/>
<path d="m84.103 16.457c0 2.0514-4.9235 3.6926-11.078 3.6926-6.1544 0-11.078-1.6412-11.078-3.6926 0-2.0515 4.9234-3.6926 11.078-3.6926 6.1543 0 11.078 1.6411 11.078 3.6926z" fill="#55CFC4"/>
<path d="m83.009 16.32c0 1.7779-4.3764 3.2823-9.8469 3.2823s-9.8469-1.5044-9.8469-3.2823 4.3764-3.2823 9.8469-3.2823c5.3338 0 9.8469 1.5044 9.8469 3.2823z" fill="#7FDBD0"/>
<path d="m54.426 102.07c1.0941 2.599 8.8896 3.693 18.326 7.522 9.8469 3.967 13.403 8.89 21.882 8.89 6.5649 0 32.55-19.147 36.106-21.745 1.504-1.0941 2.188-7.6587 1.367-8.6161-1.641-2.0514-10.941-3.6926-17.916-5.8808-8.206-2.4617-12.308-3.5558-18.189-2.7352-4.6499 0.6838-32.413 9.0263-41.713 15.454-1.3676 1.0941-0.8206 4.9235 0.1368 7.1112z" fill="#E58619"/>
<path d="m94.634 111.37c-0.4103 2.736-2.7353 5.471-5.0602 6.702 2.4617-0.137 4.6499 0.82 6.9749 0 4.1032-1.505 14.907-7.385 19.01-9.984 3.692-2.462 14.77-8.3425 15.591-10.394 1.231-2.7353 1.367-7.9323 0.82-9.1632-2.325 5.4706-10.53 7.7955-15.454 10.257-6.564 3.2818-21.882 12.582-21.882 12.582z" fill="#C36202"/>
<path d="m88.206 80.872s-33.917 9.7102-33.917 14.36c0 3.5558 10.12 4.7867 19.557 8.4797 9.8469 3.966 13.266 8.616 21.745 8.616 6.5646 0 29.541-17.096 29.541-17.096s5.197-0.5471 6.838-3.4191c1.642-2.872 0.137-4.2397-3.282-6.0176-4.376-2.1882-6.565-2.7352-13.539-4.9235-8.206-2.4617-14.497-4.3764-20.378-3.5558-5.8808 0.8206-6.5646 3.5558-6.5646 3.5558z" fill="#C56203"/>
<path d="m89.164 81.282s-32.823 9.5734-32.823 13.813c0 3.2824 9.7101 4.5132 18.463 7.9325 9.1631 3.556 12.445 8.069 20.241 8.069 6.0176 0 29.268-16.685 29.268-16.685s4.786-0.4103 6.291-3.1455c1.641-2.872 0.137-3.6926-3.419-5.4705-4.103-2.0515-6.428-2.5985-12.993-4.5132-7.659-2.325-13.539-4.1029-19.01-3.2823-5.4705 0.8205-6.0175 3.2823-6.0175 3.2823z" fill="#F5DD7F"/>
<path d="m59.76 92.634c-5.4705-0.1368-3.2823 0.547-0.9573 3.5558-1.2309 0-2.4617-0.1368-3.2823 0.5471 3.1455 0.6838 0.4103 3.0087-0.8206 4.1032 3.8294 0.82 2.325 1.914 3.0088 3.282 7.2484-2.462 5.3338 1.915 8.069 3.966 2.325-1.504 3.5559-3.693 6.8382-3.009 0.9573 0.137 2.3249 1.778 3.2823 1.778 1.3676 0 1.5044-1.367 3.0088-1.367 0.1367 0.957 0.6838 1.777 1.2308 2.461 2.0515-2.051 2.1882 2.736 7.2485 4.24 0.547-1.504 0.8205-3.556 2.4617-3.829 1.3676 2.051 3.6926-0.547 3.6926 0.547 0 3.419 3.8294 3.829 4.7867 3.419 0 0 0.2735-2.325 1.9143-2.872 0.821-0.274 1.505 0 2.325-0.411 0.684-0.273 0.137-1.504 1.231-1.778 3.83-1.504 5.334 5.334 8.48 0.958 1.23-1.641 0.136-2.735 3.145-3.009 0.821-0.137 1.915 0.684 2.735 0.274 1.231-0.547 0.684-1.095 1.505-1.915 3.009-3.009 5.197-2.735 8.889-1.504 0.547-3.6931-0.957-2.3255 2.462-4.2401-0.547-0.6839-1.094-1.3677-2.051-1.778 0.82-1.3676 1.504-1.2308 1.914-2.872-2.461 0.2735-4.103 1.7779-4.786-1.9147-2.189 0.1368-3.967 2.8721-6.292 3.2823l-60.038-1.9146z" fill="#719622"/>
<path d="m60.854 93.181c-5.0602-0.1367-3.0088 0.4103-0.8206 3.2824-1.2308 0-3.2823-1.2309-4.5131 0.2735 2.872 0.6838 2.1882 2.7352 0.9573 3.6922 3.5558 0.821 0.5471 2.325 1.2309 3.556 7.9322-4.9233 6.7014 2.325 8.069 3.966 2.0514-1.367 4.9235-5.06 7.7955-4.376 0.9573 0.137 1.3676 3.145 2.3249 3.145 1.2309 0 2.1883-2.872 3.5559-2.872 0.1368 0.958 0.6838 1.642 1.2309 2.189 1.9146-1.915 2.3249 3.282 6.8381 5.88 0.4103-1.367 0.6838-5.197 2.1882-5.47 2.325 2.735 4.5132-0.957 4.3764 0-0.547 3.556 3.5559 6.018 4.3764 5.744 0 0-0.6838-4.103 0.9574-4.513 0.8202-0.274 1.3672 0 2.1882-0.274 0.684-0.273 0.137-1.367 1.094-1.641 3.556-1.368 6.291 5.744 9.3 1.778 1.231-1.641-1.231-3.419 1.504-3.693 0.821-0.136 1.778 0.548 2.599 0.274 1.231-0.547 0.547-1.094 1.367-1.778 2.736-2.7352 7.933-1.368 11.215-0.137-0.684-3.9658-1.231-4.7864 2.462-4.2394-0.547-0.6838-2.325-1.9146-3.146-2.3249 0.821-1.2309 2.599-0.8206 3.146-2.325-5.06 0.8206-5.744 1.7779-4.787-1.9147-2.051 0.1368-6.565 2.1882-8.753 2.5985l-56.756-0.8206z" fill="#A2CA01"/>
<path d="m83.556 107.54c0.6838 0.41 2.5985 3.146 3.5558 3.693 0.5471-1.231-0.2735-1.915-0.9573-2.189-0.4103-0.273-2.5985-1.504-2.5985-1.504z" fill="#E0F557"/>
<path d="m60.717 99.198c-2.7353 0.8205-6.7014 1.3675-11.488-2.4617l-0.4103-1.2309s3.8293-0.9573 2.0514-4.1029c2.872-2.325 0.6838-6.2911 0.6838-6.2911 2.7353 0.1368 5.0603-1.0941 5.0603-5.0602 1.9147 2.0514 5.744 0.8206 7.2484-1.0941 0.1368 2.0514 1.6412 5.6073 4.1029 5.4705 0.1368 2.4617 0.2735 4.5132 1.3676 6.7014-0.2735 0.2735-5.744 7.2484-8.616 8.069z" fill="#719622"/>
<path d="m60.717 97.831c-2.7352 0.8206-7.1116 1.6412-12.035-2.1882 1.5044-0.9573 3.1456-2.5985 2.0514-4.1029 4.3765-1.5043 0.6839-6.2911 0.6839-6.2911 5.0602 1.3677 5.0602-2.5984 5.0602-6.4278 1.9147 2.0514 5.744 0.8206 7.2484-1.0941 0.1368 2.0514 1.6412 5.6073 4.1029 5.4705 0.1368 2.4617 0.2735 4.5132 1.3676 6.7014-0.1367 0-5.6072 6.9749-8.4793 7.9322z" fill="#A2CA01"/>
<path d="m55.11 90.035 1.3676 6.2911s2.7353 3.2824 15.318 5.7436c9.5734 1.915 21.062-0.547 21.062-0.547l6.0175-2.1878-4.2396-6.0175-39.524-3.2824z" fill="#FC1E00"/>
<path d="m55.11 87.574-0.1368 2.4617s4.2397 4.9235 15.591 7.3852c8.8896 1.9147 21.062 0 21.062 0l0.2735-5.8808-36.789-3.9661z" fill="#D4002B"/>
<path d="m61.401 95.369s2.872 2.5985 5.744 3.6926c3.1456 1.0944 9.4367 2.3254 9.1632 1.2304-0.2736-0.9569-6.975-1.6407-9.7102-2.4612-2.1882-0.6839-5.197-2.4618-5.197-2.4618z" fill="#FF7200"/>
<path d="m116.24 97.831c0.82 3.8292-4.377 8.2062-11.762 9.9832-7.3852 1.642-14.087 0-15.044-3.829-0.8206-3.829 4.3764-8.2056 11.762-9.9836 7.522-1.6411 14.223 0 15.044 3.8294z" fill="#BD2D03"/>
<path d="m116.52 97.147c0.547 3.829-4.923 7.932-12.445 9.163-7.5223 1.231-14.087-0.957-14.634-4.787-0.5471-3.829 4.9234-7.9318 12.445-9.1627 7.522-1.2309 14.087 0.8206 14.634 4.7867z" fill="#BD2D03"/>
<path d="m114.74 97.42c0.547 3.4195-4.376 6.9745-10.804 7.9325-6.5647 1.094-12.309-0.821-12.856-4.24-0.547-3.419 4.3764-6.9748 10.804-7.9321 6.702-1.0941 12.446 0.8205 12.856 4.2396z" fill="#DB3401"/>
<path d="m101.47 105.08c-1.7777 0.274-2.5982-0.273-1.9144-1.231l2.1884-2.872c0.684-0.957 2.051-1.0938 3.009-0.547l3.008 2.052c0.958 0.683 0.274 1.367-1.504 1.778l-4.787 0.82z" fill="#BD2D03"/>
<path d="m112.69 100.57c-0.41 0.957-1.778 1.368-3.146 0.821l-4.103-1.368c-1.367-0.4104-0.957-1.231 0.684-1.6413l5.334-1.3676c1.641-0.4103 2.735 0 2.325 0.9574l-1.094 2.5985z" fill="#BD2D03"/>
<path d="m110.5 94.275c1.504 0.2735 1.504 1.0941 0 1.7779l-4.787 2.0515c-1.504 0.6838-2.735 0.4102-2.599-0.5471l0.274-2.872c0.137-0.9574 1.368-1.5044 2.872-1.0941l4.24 0.6838z" fill="#BD2D03"/>
<path d="m97.916 94.822c1.3677-0.8206 2.7356-0.6838 3.1456 0.1367l1.231 2.7353c0.41 0.8206-0.684 1.5044-2.3251 1.2309l-5.0603-0.4103c-1.6411-0.1368-1.9146-0.8206-0.547-1.6412l3.5558-2.0514z" fill="#BD2D03"/>
<path d="m92.309 101.39c-0.6838-0.821 0.1368-1.5048 1.9147-1.6416l5.4705-0.4103c1.7777-0.1367 2.3247 0.4103 1.2307 1.3679l-3.4189 2.598c-1.0941 0.821-2.5985 0.958-3.2823 0.137l-1.9147-2.051z" fill="#BD2D03"/>
<path d="m102.43 99.062s-3.4195-0.2735-3.0092-1.0941c0.4103-0.6838 2.0512 0 2.1882 0.1368 0.274 0.4103 0.821 0.9573 0.821 0.9573z" fill="#DB3401"/>
<path d="m101.75 99.746s-2.5987 2.0515-3.6928 1.3675 1.2308-1.2308 1.5044-1.3675h2.1884z" fill="#DB3401"/>
<path d="m102.84 99.472s2.052 1.5051 0.684 2.0521-1.505-0.684-1.368-0.821c0.274-0.41 0.684-1.2311 0.684-1.2311z" fill="#DB3401"/>
<path d="m104.34 99.335s3.693-1.5044 4.103-0.5471c0.41 0.9574-2.051 0.9574-2.325 0.9574-0.547 0-1.778-0.4103-1.778-0.4103z" fill="#DB3401"/>
<path d="m103.66 98.515s-0.136-2.189 1.779-2.189 0.41 1.2313 0.274 1.3681c-0.684 0.4104-2.053 0.8209-2.053 0.8209z" fill="#DB3401"/>
<path d="m98.601 97.01s-2.7362-0.1368-1.7785-0.8209c1.0945-0.5472 1.7785 0.8209 1.7785 0.8209z" fill="#F4451C"/>
<path d="m98.054 97.694s-2.7362 0.8209-2.4626 0c0.2737-0.8208 2.4626 0 2.4626 0z" fill="#F4451C"/>
<path d="m99.695 96.737s-2.0522-0.8209-0.5473-1.2313c1.3686-0.4105 0.5473 1.2313 0.5473 1.2313z" fill="#F4451C"/>
<path d="m96.55 101.39s-1.7785 1.368-2.4625 0.684c-0.5473-0.548 2.4625-0.684 2.4625-0.684z" fill="#F4451C"/>
<path d="m97.37 101.8s-0.2736 1.505-1.5049 1.231 1.5049-1.231 1.5049-1.231z" fill="#F4451C"/>
<path d="m96.686 100.84s-2.7362 0.821-2.4625 0c0.1368-0.821 2.4625 0 2.4625 0z" fill="#F4451C"/>
<path d="m103.39 102.75s1.915 0.958 0.41 1.232c-1.504 0.273-0.41-1.232-0.41-1.232z" fill="#F4451C"/>
<path d="m104.34 102.21s2.736 0.137 1.779 0.821c-1.095 0.684-1.779-0.821-1.779-0.821z" fill="#F4451C"/>
<path d="m102.29 102.62s0.548 1.368-0.957 1.368c-1.5053 0 0.957-1.368 0.957-1.368z" fill="#F4451C"/>
<path d="m109.68 99.199s2.736-0.8209 2.463 0c-0.137 0.684-2.463 0-2.463 0z" fill="#F4451C"/>
<path d="m109.4 98.652s1.641-1.5049 2.325-0.8209c0.684 0.5472-2.325 0.8209-2.325 0.8209z" fill="#F4451C"/>
<path d="m108.99 99.745s2.873-0.1368 1.916 0.6836c-0.821 0.684-1.916-0.6836-1.916-0.6836z" fill="#F4451C"/>
<path d="m106.67 95.643s0-1.5049 1.232-1.3681c1.368 0.2736-1.232 1.3681-1.232 1.3681z" fill="#F4451C"/>
<path d="m105.44 95.643s-1.642-1.0945-0.137-1.3681 0.137 1.3681 0.137 1.3681z" fill="#F4451C"/>
<path d="m107.35 96.053s1.505-1.5049 2.189-0.9576c0.821 0.5472-2.189 0.9576-2.189 0.9576z" fill="#F4451C"/>
<g opacity=".5">
<path d="m108.72 105.63s-3.419 1.915-6.565 2.052c-3.2823 0.137-9.7101-0.684-9.1631-1.641 0.5471-0.821 4.7867 0.547 7.6591 0.683 2.325 0.137 8.069-1.094 8.069-1.094z" fill="#DB3401"/>
</g>
<path d="m131.7 91.129c-0.684 3.8294-7.249 6.0176-14.771 4.7867-7.521-1.2308-12.992-5.3337-12.445-9.1631 0.684-3.8293 7.248-6.0176 14.77-4.7867s13.13 5.3338 12.446 9.1631z" fill="#BD2D03"/>
<path d="m130.06 90.856c-0.547 3.4191-6.291 5.197-12.856 4.1029s-11.351-4.65-10.804-8.069c0.547-3.4191 6.291-5.197 12.855-4.1029 6.428 1.0941 11.352 4.7867 10.805 8.069z" fill="#DB3401"/>
<path d="m114.88 93.865c-1.778-0.2735-2.462-1.0941-1.504-1.7779l3.008-2.0514c0.958-0.6838 2.325-0.4103 3.009 0.547l2.188 2.872c0.684 0.9574-0.136 1.5044-1.914 1.2309l-4.787-0.8206z" fill="#BD2D03"/>
<path d="m126.91 93.318c-0.684 0.8206-2.188 0.6838-3.282-0.1368l-3.419-2.5985c-1.094-0.8205-0.547-1.5043 1.231-1.3676l5.47 0.4103c1.778 0.1368 2.599 0.8206 1.915 1.6412l-1.915 2.0514z" fill="#BD2D03"/>
<path d="m126.91 86.616c1.368 0.8206 1.094 1.5044-0.547 1.6411l-5.197 0.4103c-1.641 0.1368-2.735-0.4103-2.325-1.3676l1.231-2.7353c0.41-0.8205 1.778-0.9573 3.146-0.1367l3.692 2.1882z" fill="#BD2D03"/>
<path d="m114.74 83.197c1.505-0.2735 2.872 0.2735 2.872 1.0941l0.274 2.872c0.137 0.9574-1.094 1.0941-2.599 0.5471l-4.786-2.0515c-1.505-0.6838-1.505-1.3676 0-1.7779l4.239-0.6838z" fill="#BD2D03"/>
<path d="m107.35 87.71c-0.41-0.9573 0.684-1.3676 2.325-0.9573l5.334 1.3676c1.641 0.4103 2.051 1.2309 0.684 1.6412l-4.103 1.3676c-1.368 0.4103-2.736 0-3.146-0.9574l-1.094-2.4617z" fill="#BD2D03"/>
<path d="m117.75 88.668s-3.147-1.3681-2.599-1.9154c0.547-0.5472 1.915 0.6841 2.052 0.8209 0.136 0.2736 0.547 1.0945 0.547 1.0945z" fill="#DB3401"/>
<path d="m116.93 89.078s-3.145 1.0941-3.966 0.1367c-0.82-0.9573 1.642-0.8206 1.915-0.8206 0.547 0.1368 2.051 0.6839 2.051 0.6839z" fill="#DB3401"/>
<path d="m118.02 89.078s1.505 2.0521 0.137 2.1889c-1.505 0.1368-1.232-1.0945-1.095-1.2313 0.274-0.2736 0.958-0.9576 0.958-0.9576z" fill="#DB3401"/>
<path d="m119.52 89.488s3.966-0.2735 4.103 0.8206c0.137 0.9573-2.188 0.2735-2.462 0.2735-0.684-0.4103-1.641-1.0941-1.641-1.0941z" fill="#DB3401"/>
<path d="m118.98 88.531s0.547-2.0514 2.325-1.5044c1.778 0.5471 0 1.3677-0.274 1.3677-0.547 0-2.051 0.1367-2.051 0.1367z" fill="#DB3401"/>
<path d="m114.74 85.523s-2.6-0.9576-1.368-1.2313c1.094-0.4104 1.368 1.2313 1.368 1.2313z" fill="#F4451C"/>
<path d="m114.06 85.933s-2.873-0.1368-2.326-0.8209c0.411-0.684 2.326 0.8209 2.326 0.8209z" fill="#F4451C"/>
<path d="m115.83 85.523s-1.642-1.5049-0.137-1.3681 0.137 1.3681 0.137 1.3681z" fill="#F4451C"/>
<path d="m111.46 88.941s-2.189 0.6841-2.463 0c-0.41-0.8209 2.463 0 2.463 0z" fill="#F4451C"/>
<path d="m112.14 89.625s-0.684 1.3681-1.778 0.6841c-1.231-0.6841 1.778-0.6841 1.778-0.6841z" fill="#F4451C"/>
<path d="m111.73 88.394s-2.873 0-2.325-0.684c0.41-0.6841 2.325 0.684 2.325 0.684z" fill="#F4451C"/>
<path d="m117.47 92.36s1.505 1.5049 0 1.3681 0-1.3681 0-1.3681z" fill="#F4451C"/>
<path d="m118.57 92.223s2.599 0.9577 1.368 1.2313c-1.232 0.4105-1.368-1.2313-1.368-1.2313z" fill="#F4451C"/>
<path d="m116.38 91.95s0 1.5049-1.368 0.9577c-1.231-0.5473 1.368-0.9577 1.368-0.9577z" fill="#F4451C"/>
<path d="m124.58 90.993s2.873 0 2.463 0.684c-0.411 0.8209-2.463-0.684-2.463-0.684z" fill="#F4451C"/>
<path d="m124.58 90.446s2.052-0.8209 2.463 0c0.41 0.684-2.463 0-2.463 0z" fill="#F4451C"/>
<path d="m123.76 91.403s2.736 0.8208 1.641 1.2312c-1.094 0.2737-1.641-1.2312-1.641-1.2312z" fill="#F4451C"/>
<path d="m122.81 86.617s0.411-1.5049 1.642-0.8208c1.231 0.5472-1.642 0.8208-1.642 0.8208z" fill="#F4451C"/>
<path d="m121.71 86.343s-1.231-1.5049 0.274-1.2313c1.505 0.1368-0.274 1.2313-0.274 1.2313z" fill="#F4451C"/>
<path d="m123.35 87.164s1.779-0.9577 2.463-0.1368c0.41 0.8208-2.463 0.1368-2.463 0.1368z" fill="#F4451C"/>
<path d="m85.744 94.822c0 1.3677-1.5044 2.4618-3.4191 2.4618s-3.5558-0.9574-3.5558-2.325 1.5044-2.4617 3.419-2.4617c1.9147-0.1368 3.5559 0.9573 3.5559 2.3249z" fill="#FFE138"/>
<path d="m84.787 94.959c0 1.0941-1.3676 2.0514-3.0088 2.1882-1.6411 0-3.0087-0.8206-3.0087-2.0515 0-1.0941 1.3676-2.0514 3.0087-2.1882 1.6412 0 3.0088 0.9574 3.0088 2.0515z" fill="#D96500"/>
<path d="m84.65 95.232c0 0.9573-1.0941 1.7779-2.5985 1.9147-1.5044 0.1367-2.5985-0.8206-2.5985-1.778 0-0.9573 1.0941-1.7779 2.5985-1.9147 1.5044 0 2.5985 0.8206 2.5985 1.778z" fill="#FF9E03"/>
<path d="m73.709 93.591c-0.2735 0.6838-1.5044 0.8206-2.5985 0.1367-1.0941-0.547-1.7779-1.6411-1.3676-2.4617 0.2735-0.6838 1.5044-0.8206 2.5985-0.1368 1.0941 0.6839 1.7779 1.6412 1.3676 2.4618z" fill="#FFE138"/>
<path d="m73.162 93.318c-0.2735 0.547-1.2309 0.6838-2.1882 0.1367-0.9573-0.547-1.5044-1.5044-1.2309-2.0514 0.2736-0.5471 1.2309-0.6838 2.1882-0.1368 0.9574 0.5471 1.5044 1.5044 1.2309 2.0515z" fill="#D96500"/>
<path d="m73.026 93.455c-0.2735 0.547-1.0941 0.547-1.9146 0.1367-0.8206-0.4102-1.3677-1.2308-1.0941-1.7779 0.2735-0.547 1.0941-0.547 1.9146-0.1367 0.8206 0.4103 1.3677 1.2308 1.0941 1.7779z" fill="#FF9E03"/>
<path d="m132.38 95.643c-1.505 0-2.599-1.3676-2.599-2.7353 0-1.5044 1.368-2.5985 2.735-2.5985-0.683-2.5984-1.777-5.3337-3.282-7.9322-4.103-7.2484-6.838-10.394-6.838-10.394l-27.353-5.4705s-27.763 8.4793-35.148 11.762c-3.1455 1.5044-4.2396 3.1456-2.5985 9.9837 1.9147 8.4793 6.8382 16.822 6.8382 16.822l4.9234-0.273s-0.1367-3.009 2.872-3.419c2.7353-0.274 2.7353 1.914 3.1456 2.735 6.9749-0.547 36.789-6.5647 44.311-4.65 8.753 2.188 14.771 1.915 14.771 1.915 0-0.958-0.137-3.0091-0.547-6.0179-0.274 0.1367-0.684 0.2735-1.231 0.2735z" fill="#CF5800"/>
<path d="m132.38 94.548c-1.505 0-2.599-1.3676-2.599-2.7353 0-1.5044 1.368-2.5985 2.735-2.5985-0.683-2.5985-1.777-5.3337-3.282-7.9322-4.103-7.2485-6.838-10.394-6.838-10.394l-27.353-5.4705s-27.763 8.4793-35.148 11.762c-3.1455 1.5044-4.2396 3.1455-2.5985 9.9837 1.9147 8.4793 6.8382 16.822 6.8382 16.822l4.9234-0.273s-0.1367-3.009 2.872-3.419c2.7353-0.274 2.7353 1.914 3.1456 2.735 6.9749-0.547 36.789-6.5648 44.311-4.6502 8.753 2.1882 14.771 1.9152 14.771 1.9152-0.137-2.0519-0.274-3.9666-0.547-6.018-0.411 0.1367-0.821 0.2735-1.231 0.2735z" fill="#F4BE31"/>
<path d="m126.5 91.95c0.273 0.9574-0.684 2.1882-2.188 2.5985-1.505 0.4103-3.009 0.1368-3.283-0.8205-0.273-0.9574 0.684-2.1882 2.189-2.5985 1.504-0.5471 2.872-0.1368 3.282 0.8205z" fill="#FFE138"/>
<path d="m125.68 92.224c0.274 0.8206-0.547 1.7779-1.914 2.1882-1.368 0.4103-2.599 0.1368-2.872-0.6838-0.274-0.8206 0.547-1.7779 1.914-2.1882 1.368-0.4103 2.735-0.1368 2.872 0.6838z" fill="#D96500"/>
<path d="m125.68 92.497c0.274 0.6839-0.547 1.6412-1.641 1.9147-1.094 0.4103-2.188 0-2.462-0.6838-0.273-0.6838 0.547-1.6411 1.642-1.9147 1.23-0.2735 2.324 0 2.461 0.6838z" fill="#FF9E03"/>
<path d="m67.418 96.326c0.2735 0.8206-0.5471 1.7779-1.9147 2.1882-1.2309 0.4103-2.5985 0.1368-2.7352-0.6838-0.2736-0.8206 0.547-1.7779 1.9146-2.1882 1.2309-0.4103 2.4618-0.1368 2.7353 0.6838z" fill="#FFE138"/>
<path d="m66.734 96.6c0.2736 0.6838-0.547 1.5043-1.6411 1.9146s-2.1882 0-2.325-0.6838c-0.2735-0.6838 0.5471-1.5044 1.6412-1.9147 1.0941-0.2735 2.1882 0 2.3249 0.6839z" fill="#D96500"/>
<path d="m66.735 96.737c0.1368 0.5471-0.4102 1.3677-1.3676 1.6412-0.9573 0.2735-1.9147 0-2.0514-0.5471-0.1368-0.547 0.4103-1.3676 1.3676-1.6411s1.9147 0 2.0514 0.547z" fill="#FF9E03"/>
<path d="m54.562 87.437c1.0941 2.5985 8.4793 3.9661 17.916 7.6587 9.8469 3.9662 13.266 8.6165 21.745 8.6165 6.5642 0 33.233-18.327 36.926-20.925 1.504-1.0941 1.641-8.2058 0.82-9.1631-1.641-2.0515-10.941-3.6926-17.916-5.8809-8.205-2.4617-12.308-3.5558-18.189-2.7352-4.6499 0.6838-31.866 8.6161-41.166 15.044-1.6412 0.9574-1.0941 5.0602-0.1368 7.3852z" fill="#E58619"/>
<path d="m94.361 96.463c-0.4103 2.7353-2.7353 5.4708-5.0602 6.7018 2.872 0.957 4.6499 1.23 6.9749 0.41 4.1027-1.505 14.907-7.7956 19.01-10.394 3.693-2.4617 14.771-8.3426 15.591-10.394 1.231-2.7353 1.368-7.9323 0.821-9.1631-2.325 5.4705-10.531 7.7955-15.454 10.257-6.565 3.2823-21.882 12.582-21.882 12.582z" fill="#C36202"/>
<path d="m87.796 66.239s-33.917 9.7102-33.917 14.36c0 3.5559 10.12 4.7867 19.557 8.4793 9.847 3.9661 13.266 8.6161 21.745 8.6161 6.5649 0 29.541-17.095 29.541-17.095s5.197-0.547 6.838-3.4191c1.641-2.872 0.137-4.2396-3.282-6.0175-4.377-2.1882-6.565-2.7353-13.54-4.9235-8.206-2.4617-14.497-4.3764-20.377-3.5558-5.8808 0.8205-6.5647 3.5558-6.5647 3.5558z" fill="#C56203"/>
<path d="m88.753 66.649s-32.823 9.5734-32.823 13.813c0 3.2823 9.7102 4.5132 18.463 7.9323 9.1632 3.6926 12.446 8.069 20.241 8.069 6.0179 0 29.267-16.685 29.267-16.685s4.787-0.4103 6.291-3.1455c1.642-2.8721 0.137-3.6926-3.419-5.4706-4.103-2.0514-6.427-2.5984-12.992-4.5131-7.659-2.325-13.54-4.1029-19.01-3.2823-5.4705 0.8205-6.0175 3.2823-6.0175 3.2823z" fill="#F5DD7F"/>
<path d="m126.77 71.162c-4.102-2.0514-6.427-2.5984-12.992-4.5131-7.659-2.325-13.54-4.1029-19.01-3.2823-2.1883 0.2735-3.5559 0.9573-4.5132 1.5044 1.9147 0.547 13.813 1.2308 21.882 6.291 5.744 3.6926 3.692 14.087-24.481 24.07 0 0 2.872 1.2309 6.8381 1.2309 6.0177 0 29.268-16.685 29.268-16.685s4.786-0.4103 6.291-3.1455c1.778-2.8721 0.273-3.6926-3.283-5.4706z" fill="#FBBA56" opacity=".7"/>
<path d="m69.744 78.411c0 0.4104-0.5473 0.8208-1.2313 0.8208-0.6841 0-1.2313-0.4104-1.2313-0.8208 0-0.4105 0.5472-0.8209 1.2313-0.8209 0.684 0 1.2313 0.4104 1.2313 0.8209z" fill="#FBBA56"/>
<path d="m74.667 82.787c0 0.4104-0.4105 0.684-0.9577 0.684-0.5473 0-0.9577-0.2736-0.9577-0.684 0-0.4105 0.4104-0.6841 0.9577-0.6841 0.5472 0 0.9577 0.2736 0.9577 0.6841z" fill="#FBBA56"/>
<path d="m93.404 70.479c-0.1368 0.4105-0.8209 0.5473-1.3681 0.2737-0.5473-0.2737-0.9577-0.8209-0.8209-1.2313 0.1368-0.4105 0.8209-0.5473 1.3681-0.2736 0.6841 0.2736 0.9577 0.8208 0.8209 1.2312z" fill="#FBBA56"/>
<path d="m94.224 79.368c-0.1368 0.2736-0.5472 0.4104-0.9576 0.1368-0.4105-0.1368-0.6841-0.5473-0.5473-0.8209s0.5473-0.4104 0.9577-0.1368c0.4104 0.1368 0.684 0.5473 0.5472 0.8209z" fill="#FBBA56"/>
<path d="m82.326 70.889c0 0.4104-0.4104 0.684-0.9576 0.684-0.5473 0-0.9577-0.2736-0.9577-0.684 0-0.4105 0.4104-0.6841 0.9577-0.6841 0.5472 0 0.9576 0.2736 0.9576 0.6841z" fill="#FBBA56"/>
<path d="m90.942 90.583c0 0.4104-0.4105 0.684-0.9577 0.684s-0.9577-0.2736-0.9577-0.684c0-0.4105 0.4105-0.6841 0.9577-0.6841s0.9577 0.2736 0.9577 0.6841z" fill="#FBBA56"/>
<path d="m110.36 80.052c0 0.4105-0.411 0.6841-0.958 0.6841s-0.958-0.2736-0.958-0.6841c0-0.4104 0.411-0.684 0.958-0.684 0.41 0 0.958 0.2736 0.958 0.684z" fill="#FBBA56"/>
<path d="m100.38 83.471c0 0.2736-0.4107 0.5472-0.8212 0.5472-0.4104 0-0.8208-0.2736-0.8208-0.5472s0.4104-0.5473 0.8208-0.5473c0.5472 0 0.8212 0.2737 0.8212 0.5473z" fill="#FBBA56"/>
<path d="m88.48 80.872c0 0.2737-0.4104 0.5473-0.9577 0.5473-0.5472 0-0.9576-0.2736-0.9576-0.5473 0-0.2736 0.4104-0.5472 0.9576-0.5472 0.5473 0 0.9577 0.2736 0.9577 0.5472z" fill="#FBBA56"/>
<path d="m121.99 75.402c0 0.2736-0.41 0.5473-0.957 0.5473-0.548 0-0.958-0.2737-0.958-0.5473s0.41-0.5472 0.958-0.5472c0.547 0 0.957 0.2736 0.957 0.5472z" fill="#FBBA56"/>
<path d="m109.27 68.564c0 0.2736-0.41 0.5472-0.957 0.5472-0.548 0-0.958-0.2736-0.958-0.5472 0-0.2737 0.41-0.5473 0.958-0.5473 0.547-0.1368 0.957 0.1368 0.957 0.5473z" fill="#FBBA56"/>
<path d="m104.21 71.436c0 0.2736-0.41 0.5473-0.958 0.5473-0.547 0-0.957-0.2737-0.957-0.5473s0.41-0.5472 0.957-0.5472c0.548 0 0.958 0.2736 0.958 0.5472z" fill="#FBBA56"/>
<path d="m81.232 88.942c0 0.2736-0.4105 0.5473-0.8209 0.5473s-0.8209-0.2737-0.8209-0.5473 0.4105-0.5472 0.8209-0.5472 0.8209 0.2736 0.8209 0.5472z" fill="#FBBA56"/>
<path d="m80.411 77.59c0 0.2736-0.4105 0.5473-0.8209 0.5473s-0.8208-0.2737-0.8208-0.5473 0.4104-0.5472 0.8208-0.5472c0.5473 0 0.8209 0.2736 0.8209 0.5472z" fill="#FBBA56"/>
<path d="m60.444 80.325c0 0.2737-0.4104 0.5473-0.8209 0.5473-0.4104 0-0.8208-0.2736-0.8208-0.5473 0-0.2736 0.4104-0.5472 0.8208-0.5472 0.4105 0 0.8209 0.2736 0.8209 0.5472z" fill="#FBBA56"/>
<path d="m105.71 84.018c0 0.2737-0.41 0.5473-0.82 0.5473-0.411 0-0.821-0.2736-0.821-0.5473 0-0.2736 0.41-0.5472 0.821-0.5472 0.547 0 0.82 0.2736 0.82 0.5472z" fill="#FBBA56"/>
<path d="m112.28 68.564c0 0.2736-0.41 0.5472-0.821 0.5472-0.41 0-0.821-0.2736-0.821-0.5472 0-0.2737 0.411-0.5473 0.821-0.5473 0.411 0 0.821 0.2736 0.821 0.5473z" fill="#FBBA56"/>
<path d="m91.625 68.427c-3.8294 2.5985 2.1882 5.744 3.6926 1.3676-0.5471-0.8206-1.3676-1.2309-2.325-1.3676h-1.3676z" fill="#E58619"/>
<path d="m109.54 76.086c-2.872 1.3676-1.778 4.7867 1.368 4.1028 2.735-0.547 2.872-4.3764-0.41-4.1028h-0.958z" fill="#E58619"/>
<path d="m81.642 74.308c-0.2735 2.3249-0.9574 6.2911 6.7014 9.9837 5.3337 2.5985 16.822 1.9146 21.472-0.8206-4.24 5.744-17.643 5.6073-23.25 3.0088-5.4706-2.5985-6.8382-6.9749-6.975-10.941 0-3.419 2.0515-1.9147 2.0515-1.2308z" fill="#E58619"/>
<path d="m92.446 68.837c-2.5985 1.778 1.5044 3.9662 2.5985 0.9574-0.4103-0.5471-0.9574-0.8206-1.6412-0.9574h-0.9573z" fill="#C36202"/>
<path d="m110.09 76.906c-2.598 1.7779 1.505 3.9662 2.599 0.9574-0.41-0.5471-0.958-0.8206-1.641-0.9574h-0.958z" fill="#C36202"/>
<path d="m81.095 74.308c-0.2735 2.325 0.1367 7.2485 7.6587 10.941 5.3338 2.5985 16.822 0.8205 21.472-1.9147-4.24 4.1029-17.642 4.9235-23.25 2.325-5.4705-2.5985-6.8382-4.9235-6.9749-8.8896-0.1368-3.2823 1.0941-3.1456 1.0941-2.4618z" fill="#C36202"/>
<path d="m41.023 116.29c5.0602 8.479 16.685 10.804 25.712 5.197 9.1631-5.471 12.309-16.822 7.2484-25.301-5.0602-8.3426-16.685-10.668-25.711-5.0602-9.1632 5.4705-12.446 16.822-7.2485 25.164z" fill="#C8011E"/>
<path d="m59.623 88.121c-3.2824 0.547-3.1456 3.9661-1.3677 5.197 1.3677 1.0941 5.8808 0.1367 9.1632 5.3337 2.7352 4.6497 3.419 9.7107-1.6412 16.412-3.5558 4.787-10.12 7.522-17.779 5.881-3.9661-0.821-5.197-2.189-5.8808-2.872 5.4705 7.111 16.138 8.753 24.617 3.692 9.1632-5.47 12.309-16.822 7.2485-25.301-1.0941-1.9147-2.5985-3.419-4.2397-4.6499-1.6411-1.3676-6.5646-3.8294-10.12-3.6926z" fill="#A30429"/>
<path d="m52.648 98.241c-1.9147 1.915-5.6073 4.103-6.5646 0.1367-0.8206-3.6926 5.0602-9.1631 8.7528-8.069 2.325 0.8206 0.6838 5.0602-2.1882 7.9323z" fill="#3E6B12" opacity=".3"/>
<path d="m39.655 113.83c-3.1456-7.932 0.1367-17.506 8.2057-22.566-1.0941 2.0514-7.1116 9.0268-1.3676 11.078 4.9235 1.778 8.8896-3.8294 11.215-4.1029s4.2396 1.2309 5.0602 2.4619c1.9147 3.009 1.6412 9.163-3.9661 13.676-5.197 3.966-14.77 3.966-19.147-0.547z" fill="#E5393B"/>
<path d="m50.596 95.779c-0.547 0.5471-1.7779 1.2309-2.0514 0.1368s1.6411-2.7353 2.872-2.4618c0.8206 0.1368 0.1368 1.5044-0.8206 2.325z" fill="#600606"/>
<path d="m50.596 95.779s-2.872-2.8721-3.6926-5.6073c-0.9573-3.2823 1.2309-4.65 1.2309-4.65l-3.2823-0.4102s-1.2309 2.1882-0.6838 4.5131c0.8205 3.8294 6.0175 6.5647 6.0175 6.5647l0.4103-0.4103z" fill="#7C201E"/>
<g opacity=".5">
<path d="m45.126 105.63c1.0941 0.821 1.3676 2.325 0.6838 3.283-0.6838 1.094-2.1882 1.23-3.2823 0.41-1.0941-0.821-1.3676-2.325-0.6838-3.282 0.6838-0.958 2.1882-1.095 3.2823-0.411z" fill="#fff"/>
</g>
<g opacity=".5">
<path d="m48.272 108.09c0.5472 0.411 0.684 1.095 0.2736 1.505-0.2737 0.547-1.0945 0.547-1.5049 0.137-0.5473-0.411-0.6841-1.095-0.2737-1.505 0.2737-0.41 0.9577-0.547 1.505-0.137z" fill="#fff"/>
</g>
<path d="m49.366 100.43c0.2736-0.136 0.4103-0.136 0.5471-0.273 0.2735-0.137 0.6838-0.4105 1.2309-0.684 0.2735-0.1368 0.547-0.4103 0.6838-0.5471 0.2735-0.2735 0.547-0.4103 0.8205-0.6838 0.2736-0.2735 0.5471-0.547 0.6839-0.8206 0.2735-0.2735 0.4103-0.547 0.6838-0.9573l0.1367-0.2735c0-0.1368 0.1368-0.1368 0.1368-0.2736 0.1368-0.1367 0.1368-0.2735 0.2735-0.547 0.1368-0.1368 0.1368-0.2735 0.2736-0.5471 0-0.1367 0.1367-0.1367 0.1367-0.2735s0.1368-0.1368 0.1368-0.2735c0.1367-0.2736 0.2735-0.6838 0.4103-0.9574 0.1367-0.2735 0.1367-0.6838 0.2735-0.9573 0-0.2735 0.1368-0.5471 0.1368-0.8206v-0.547c0-0.1368-0.1368-0.2736-0.1368-0.4103 0-0.1368-0.1368-0.1368-0.1368-0.1368l0.1368 0.1368c0 0.1367 0.1368 0.1367 0.2735 0.4103 0.1368 0.1367 0.1368 0.4103 0.1368 0.6838v0.8206c0 0.2735 0 0.6838-0.1368 0.9573-0.1367 0.4103-0.1367 0.6838-0.2735 1.0941 0 0.1368 0 0.1368-0.1368 0.2735 0 0.1368 0 0.1368-0.1367 0.2736-0.1368 0.1367-0.1368 0.4102-0.2736 0.547-0.1367 0.4103-0.4102 0.6838-0.547 1.0941-0.2735 0.4103-0.4103 0.6838-0.6838 0.9573-0.2735 0.2736-0.5471 0.5471-0.8206 0.8206-0.2735 0.2736-0.547 0.5471-0.8206 0.6839-0.2735 0.1367-0.547 0.4102-0.8206 0.547-0.2735 0.1368-0.547 0.2735-0.8205 0.2735-0.2736 0.137-0.4103 0.137-0.5471 0.137-0.1367 0-0.2735 0-0.4103 0.137l-0.4103 0.136z" fill="#E5393B"/>
<path d="m50.596 95.643s-2.872-2.872-3.6926-5.6073c-0.9573-3.2823 1.2309-4.6499 1.2309-4.6499l-1.7779-0.1368s-1.2309 2.1882-0.6838 4.5132c0.8205 3.8293 4.5131 6.1543 4.5131 6.1543l0.4103-0.2735z" fill="#600606"/>
<path d="m40.75 92.771s-2.1882-6.0175-5.6073-7.6587c-3.0088-1.3676-6.7014-0.9573-9.2999 0.2735-1.5044 0.6839-4.9234 1.3677-4.9234 1.3677s0.4102 0.4103 1.2308 2.1882c1.3677 3.0088 0.9574 4.9234 5.0603 7.2484 2.5984 1.5044 6.7013 2.0515 11.625-1.5044 1.7779-1.0941 1.9147-1.9147 1.9147-1.9147z" fill="#FFBD33"/>
<g opacity=".3">
<path d="m40.75 92.771s-4.7867 0.1368-9.5734-1.2308c-4.5132-1.3677-10.12-4.7867-10.12-4.7867s0.4103 0.4102 1.2309 2.1882c1.3676 3.0087 0.9573 4.9234 5.0602 7.2484 2.5985 1.5044 6.7014 2.0514 11.625-1.5044 1.6411-1.0941 1.7779-1.9147 1.7779-1.9147z" fill="#BB362E"/>
</g>
<path d="m49.092 95.916c-0.1367 0-0.1367-0.1368-0.2735-0.1368-0.1367-0.1368-0.4103-0.2735-0.8206-0.4103-0.6838-0.4103-1.7779-0.8206-3.1455-1.2309-1.3676-0.4102-2.872-0.8205-4.65-1.094-0.8205-0.1368-1.7779-0.1368-2.7352-0.1368h-0.6838-0.6838-0.6839-0.4102-0.4103c-0.4103 0-0.9574-0.1368-1.3677-0.1368-0.4103-0.1367-0.9573-0.1367-1.3676-0.2735-0.9573-0.2735-1.7779-0.5471-2.5985-0.9573-0.8206-0.4103-1.6411-0.6839-2.325-1.0941-0.6838-0.4103-1.3676-0.8206-2.0514-1.0942-1.2309-0.6838-2.1882-1.2308-3.0088-1.6411-0.4103-0.1368-0.6838-0.4103-0.8206-0.4103v-0.547s0.1368-1e-4 0.2736 0.1367c0.1367 0.1368 0.547 0.2735 0.8205 0.4103 0.6839 0.4103 1.778 0.9573 3.0088 1.6412 0.6838 0.2735 1.3677 0.6838 2.0515 1.0941 0.6838 0.4102 1.5044 0.6838 2.3249 1.0941 0.8206 0.2735 1.6412 0.547 2.5985 0.8205 0.4103 0.1368 0.9574 0.1368 1.3677 0.2736 0.4103 0 0.9573 0.1367 1.3676 0.1367h0.4103 0.4103 0.6838 0.6838 0.6838c0.9574 0 1.9147 0 2.7353 0.1368 1.7779 0.1368 3.4191 0.547 4.7867 0.9573s2.4617 0.8206 3.2823 1.2309c0.4103 0.1368 0.6838 0.2735 0.8206 0.4103 0.1367 0 0.1367 0.1368 0.2735 0.1368h0.1368l-0.6839 0.6838z" fill="#7C201E"/>
<g opacity=".5">
<path d="m37.057 92.36c-0.1368-0.1368-0.1368-0.2736-0.1368-0.2736-0.1367-0.2735-0.2735-0.547-0.547-0.8205-0.2735-0.4103-0.4103-0.8206-0.8206-1.2309-0.1368-0.2735-0.2735-0.4103-0.5471-0.6838-0.1367-0.2735-0.4102-0.4103-0.547-0.6838-0.1368-0.1368-0.1368-0.2736-0.2735-0.2736-0.1368-0.1367-0.1368-0.1367-0.2736-0.2735-0.1367-0.1367-0.4102-0.4103-0.547-0.547-0.1368-0.1368-0.4103-0.2736-0.5471-0.4103-0.1367-0.1368-0.1367-0.1368-0.2735-0.2735-0.1368 0-0.1367-0.1368-0.2735-0.1368-0.1368-0.1368-0.2735-0.2735-0.5471-0.2735-0.1367-0.1368-0.2735-0.1368-0.4103-0.2736 0.1368 0 0.2736 0.1368 0.4103 0.1368 0.1368 0.1368 0.2736 0.1368 0.5471 0.2735 0.1368 0 0.1367 0.1368 0.2735 0.1368s0.1368 0.1368 0.2735 0.1368c0.1368 0.1367 0.4103 0.2735 0.6839 0.4102 0.2735 0.1368 0.4102 0.2736 0.6838 0.5471 0.1367 0.1368 0.2735 0.1368 0.2735 0.2735 0.1368 0.1368 0.2735 0.1368 0.2735 0.2735l0.5471 0.5471c0.1367 0.2735 0.4103 0.4103 0.547 0.547 0.2735 0.4103 0.6838 0.8206 0.8206 1.0942 0.2735 0.4102 0.4103 0.6838 0.5471 0.8205 0 0.1368 0.1367 0.1368 0.1367 0.2736v0.1367l-0.2735 0.5471z" fill="#600606"/>
</g>
<g opacity=".5">
<path d="m33.228 92.224c-0.1368 0.1367-0.2735 0.1367-0.2735 0.2735-0.1368 0.1368-0.2736 0.1368-0.4103 0.2735-0.1368 0.1368-0.2735 0.2736-0.5471 0.2736-0.1367 0.1367-0.4103 0.2735-0.6838 0.4102-0.2735 0.1368-0.547 0.2736-0.6838 0.2736h-0.1368-0.2735c-0.1368 0-0.2735 0.1367-0.4103 0.1367-0.2735 0-0.547 0.1368-0.8206 0.1368-0.2735 0-0.547 0-0.8205-0.1368h-0.2736-0.2735c-0.1368 0-0.2735-0.1367-0.4103-0.1367-0.1367 0-0.2735-0.1368-0.4103-0.1368-0.1367 0-0.2735-0.1368-0.4103-0.1368 0 0-0.1367 0-0.1367-0.1367l-0.1368-0.1368s-0.1367 0-0.1367-0.1367h-0.1368c-0.1368-0.1368-0.2735-0.2736-0.4103-0.4103-0.1368-0.1368-0.2735-0.2736-0.2735-0.2736 0.1367 0.1368 0.2735 0.1368 0.4103 0.2736l0.4103 0.4103h0.1367s0.1368 0 0.1368 0.1367c0 0 0.1367 0 0.1367 0.1368 0 0 0.1368 0 0.1368 0.1367 0.1368 0 0.2735 0.1368 0.4103 0.1368s0.2735 0.1368 0.4103 0.1368c0.1367 0 0.2735 0.1367 0.4103 0.1367h0.1367 0.2736 0.8205c0.2736 0 0.5471 0 0.8206-0.1367 0.1368 0 0.2735-0.1368 0.4103-0.1368h0.1368s0.1367 0 0.1367-0.1368c0.2736-0.1367 0.5471-0.2735 0.6838-0.2735 0.2736-0.1367 0.4103-0.2735 0.5471-0.4103 0.1368-0.1367 0.2735-0.2735 0.4103-0.4103 0.1368-0.1367 0.2735-0.2735 0.2735-0.2735 0.1368-0.1367 0.1368-0.1367 0.2735-0.1367v-0.1368l0.5471 0.4103z" fill="#600606"/>
</g>
</svg>
