<?xml version="1.0" encoding="UTF-8"?>
<svg fill="none" viewBox="0 0 138 138" xmlns="http://www.w3.org/2000/svg">
<path d="m15.78 120.12s-11.351-17.916 0-23.25c0 0 10.941-3.1456 31.045-6.8382 0 0 16.548-9.2998 12.992-24.207 0 0-2.1882-52.654 17.779-59.629 0 0 19.01-6.7014 35.695 5.3338 0 0 16.822 17.232 13.813 40.619 0 0 3.693 27.626-36.242 68.108 0 0-30.635 15.728-47.867 12.582 0-0.137-14.634 1.915-27.216-12.719z" clip-rule="evenodd" fill="#CA92FF" fill-rule="evenodd" opacity=".4"/>
<path d="m29.046 51.058s-9.7102 5.3338-10.257 17.916c-0.9574 19.831 15.728 20.788 15.728 20.788v7.5219s-17.232-3.8293-21.198-16.822c-7.1117-23.797 11.625-35.969 11.625-35.969l4.1029 6.5646z" fill="#5D5470"/>
<path d="m26.602 15.767-13.453 8.913 33.386 50.39 13.453-8.913-33.386-50.39z" fill="#B7C1E2"/>
<path d="m68.844 86.616h-38.157v3.8294h38.157v-3.8294z" fill="#B7C1E2"/>
<path d="m16.712 8.8347-6.7263 4.4565 33.386 50.39 6.7263-4.4565-33.386-50.391z" fill="#B7C1E2"/>
<path d="m52.433 90.446h-19.557v22.565h19.557v-22.565z" fill="#D3D9ED"/>
<path d="m14.139 26.44s-0.8205-1.0942 5.8808-5.197c4.1029-2.4618 7.522-3.5559 7.522-3.5559l2.4617 3.8294-14.086 8.069-1.778-3.1455z" fill="#43405A"/>
<path d="m68.844 89.625h-38.157v1.3677h38.157v-1.3677z" fill="#43405A"/>
<path d="m41.765 73.213 18.326-12.172-28.036-42.396s-2.872 0.1368-9.7102 4.65c-7.3852 4.7867-8.616 7.5219-8.616 7.5219l28.036 42.396z" fill="#D3D9ED"/>
<path d="m17.148 26.988 10.257 15.181s5.744 10.804 10.394 7.6588c6.8382-4.65-13.813-27.079-13.813-27.079l-6.8382 4.2396z" fill="#fff" opacity=".3"/>
<path d="m31.645 18.782-3.0088 2.1882s14.087 15.317 14.087 26.806c0 9.5734-8.6161 13.813-8.6161 13.813l7.3852 11.762 18.326-12.172-28.173-42.396z" fill="#7C7091" opacity=".4"/>
<path d="m53.889 51.638-18.355 12.161 6.2694 9.4625 18.355-12.161-6.2694-9.4624z" fill="#43405A"/>
<path d="m27.405 51.605s-9.7102 5.3338-10.257 17.916c-0.9574 19.831 15.728 20.788 15.728 20.788v7.5219s-17.232-3.8293-21.198-16.822c-7.1117-23.797 11.625-35.969 11.625-35.969l4.1029 6.5646z" fill="#D3D9ED"/>
<path d="m18.789 48.049c0 3.9662 3.2823 7.2485 7.2484 7.2485s7.2484-3.2823 7.2484-7.2485c0-3.9661-3.2823-7.2484-7.2484-7.2484-4.1029 0-7.2484 3.1455-7.2484 7.2484z" fill="#43405A"/>
<path d="m21.388 48.049c0 2.5985 2.0514 4.6499 4.6499 4.6499s4.6499-2.0514 4.6499-4.6499-2.0514-4.65-4.6499-4.65-4.6499 2.0515-4.6499 4.65z" fill="#44B4A6"/>
<path d="m28.499 93.044c0 2.4617 2.0515 4.5132 4.5132 4.5132s4.5132-2.0515 4.5132-4.5132-2.0515-4.5132-4.5132-4.5132c-2.5985 0-4.5132 2.0515-4.5132 4.5132z" fill="#43405A"/>
<path d="m30.003 93.044c0 1.6411 1.2309 2.872 2.872 2.872 1.6412 0 2.8721-1.2309 2.8721-2.872 0-1.6412-1.2309-2.872-2.8721-2.872-1.5044 0-2.872 1.2308-2.872 2.872z" fill="#44B4A6"/>
<path d="m9.8994 13.311-3.4191-0.8206 10.394-6.8382-0.1367 3.2823-6.8382 4.3765z" fill="#43405A"/>
<path d="m11.267 12.627 6.5647 8.7529 1.5044-1.0942-5.6073-9.2998-2.4618 1.6411z" fill="#fff" opacity=".5"/>
<path d="m49.287 90.446s1.778 11.077-2.872 15.454c-3.419 3.282-13.54 2.188-13.54 2.188v3.282h19.557v-20.924h-3.1456z" fill="#7C7091" opacity=".5"/>
<path d="m68.844 110.96h-55.389v3.829h55.389v-3.829z" fill="#43405A"/>
<path d="m15.507 57.212c0 0.9573 0.8206 1.7779 1.7779 1.7779 0.9574 0 1.7779-0.8206 1.7779-1.7779s-0.8205-1.7779-1.7779-1.7779c-0.9573-0.1368-1.7779 0.6838-1.7779 1.7779z" fill="#43405A"/>
<path d="m16.19 57.213c0 0.684 0.5473 1.0944 1.0945 1.0944 0.6841 0 1.0945-0.5472 1.0945-1.0944 0-0.6841-0.5473-1.0945-1.0945-1.0945-0.5472-0.1368-1.0945 0.4104-1.0945 1.0945z" fill="#44B4A6"/>
<path d="m39.577 119.71c-0.547-0.274-1.9147-3.009-2.1882-4.65-0.2735-2.599 0.1368-5.744 1.6412-4.24-2.0515 2.736 0.9573 8.069 1.7779 9.3l-1.2309-0.41z" fill="#A04507"/>
<path d="m119.99 109.32-46.637 19.694 5.197 1.778 46.5-21.199-5.06-0.273z" fill="#ED8707"/>
<path d="m78.554 131.75 46.5-21.198v-0.958l-46.5 21.199v0.957z" fill="#A04507"/>
<path d="m78.554 131.75-39.114-12.172-0.1367-0.821 39.251 12.036v0.957z" fill="#DF6409"/>
<path d="m40.124 118.89s-1.3676-2.461-1.6411-4.239c-0.2735-1.915 0-3.146 0-3.146l39.251 11.488s-1.0941 0.821-0.8206 2.872c0.2735 2.052 0.8206 4.513 0.8206 4.513l-37.61-11.488z" fill="#FFE7D4"/>
<path d="m77.05 126.55c0.1368 2.188 0.8206 3.966 0.8206 3.966l45.405-20.514s-0.684-0.958-1.231-3.146c-0.41-1.778 0.274-3.556 0.274-3.556l-44.585 19.147s-0.9573 1.504-0.6838 4.103z" fill="#F9D0AF"/>
<path d="m77.734 123 47.32-20.104v-0.82l-47.32 19.83v1.094z" fill="#A04507"/>
<path d="m77.734 123-39.114-11.625v-0.82l39.114 11.351v1.094z" fill="#DF6409"/>
<path d="m77.734 121.9 47.32-19.831-34.328-6.9745-52.107 15.454 39.114 11.351z" fill="#FFBD33"/>
<g opacity=".5">
<path d="m81.837 123s0.547-0.273 1.6411-0.684c0.9574-0.41 2.4618-0.957 4.2397-1.641 0.8206-0.41 1.7779-0.684 2.872-1.094 0.9573-0.41 2.0514-0.82 3.1456-1.231 1.0941-0.41 2.1882-0.957 3.2823-1.367 1.0941-0.547 2.3249-0.958 3.4186-1.505 1.095-0.547 2.325-1.094 3.42-1.641 1.094-0.547 2.188-1.094 3.282-1.504 2.188-0.958 4.103-1.915 5.881-2.736-1.642 0.821-3.693 1.778-5.881 2.736-1.094 0.547-2.188 0.957-3.282 1.504-1.095 0.547-2.189 1.094-3.42 1.641-0.5466 0.274-1.0937 0.547-1.6407 0.821-0.2736 0.137-0.5471 0.273-0.8206 0.41s-0.547 0.274-0.8206 0.41c-0.547 0.274-1.0941 0.547-1.6411 0.684-0.5471 0.274-1.0941 0.41-1.6412 0.684-1.0941 0.41-2.1882 0.821-3.1455 1.231-0.5471 0.137-0.9574 0.41-1.5044 0.547-0.4103 0.137-0.9574 0.41-1.3677 0.547-0.8205 0.273-1.6411 0.684-2.4617 0.957-0.6838 0.274-1.3676 0.547-1.9147 0.684-1.0941 0.274-1.6411 0.547-1.6411 0.547z" fill="#C6794D"/>
</g>
<g opacity=".5">
<path d="m87.307 121.9s1.7779-0.684 4.3764-1.915c0.6839-0.273 1.3677-0.547 2.0515-0.957 0.6838-0.273 1.5044-0.684 2.325-0.957 0.8205-0.411 1.6411-0.684 2.4617-1.094 0.8206-0.411 1.7783-0.821 2.5983-1.094 0.821-0.411 1.778-0.821 2.599-1.095 0.82-0.41 1.641-0.683 2.461-1.094 1.642-0.683 3.146-1.367 4.377-1.914 2.598-1.094 4.376-1.915 4.376-1.915s-1.778 0.821-4.239 1.915c-2.599 1.231-6.018 2.735-9.437 4.239-0.41 0.137-0.821 0.411-1.231 0.547-0.4102 0.137-0.8205 0.411-1.2308 0.547-0.8206 0.411-1.6411 0.684-2.4617 1.095-0.8206 0.41-1.6412 0.683-2.325 0.957-0.6838 0.273-1.5044 0.547-2.0514 0.82-0.6838 0.274-1.2309 0.547-1.7779 0.684-0.5471 0.274-0.9574 0.411-1.3677 0.547-1.0941 0.547-1.5044 0.684-1.5044 0.684z" fill="#C6794D"/>
</g>
<g opacity=".5">
<path d="m81.153 127.51s0.6838-0.273 1.778-0.82c0.547-0.274 1.2308-0.547 1.9146-0.958 0.8206-0.41 1.6412-0.683 2.5985-1.23 0.9574-0.411 1.9147-0.958 3.0088-1.368 1.0941-0.547 2.1882-0.957 3.4191-1.504 1.2309-0.548 2.4617-1.095 3.6926-1.642s2.4616-1.094 3.8296-1.641c1.231-0.547 2.598-1.094 3.829-1.641l3.693-1.641c2.325-1.094 4.65-2.052 6.428-2.872 3.829-1.641 6.291-2.872 6.291-2.872s-2.462 1.094-6.291 2.872c-1.915 0.82-4.103 1.915-6.428 2.872l-3.693 1.641c-1.231 0.547-2.462 1.094-3.829 1.641-1.231 0.547-2.462 1.094-3.8296 1.641-1.2309 0.547-2.4617 1.094-3.6926 1.642-2.325 1.094-4.6499 2.051-6.4279 2.872-0.9573 0.41-1.7779 0.82-2.5985 1.094-0.8205 0.273-1.5044 0.683-2.0514 0.82-0.9574 0.821-1.6412 1.094-1.6412 1.094z" fill="#C6794D"/>
</g>
<path d="m45.321 112.46c7.2485-5.197 30.772-12.992 45.542-12.035 2.1882 0.137 6.9749 0.411 7.3852 3.283 0.5471 3.145-5.3337 6.838-7.1117 8.342-5.3337 4.24-10.257 5.744-16.275 8.616l-29.541-8.206z" fill="#FFD833"/>
<path d="m91.136 112.05c5.744 0 16.002-3.692 16.274-7.522 0.137-3.009-8.3423-3.282-11.488-2.462l-4.7867 9.984z" fill="#A04507" opacity=".3"/>
<path d="m76.503 96.463c-0.6838 1.5044-1.0941 3.1455-1.0941 4.9238 0 3.966 1.9147 7.385 4.7867 9.573 0.9574 1.231 3.6926 1.915 6.9749 1.915 3.1456 0 5.8808-0.684 6.8382-1.778 3.0088-2.188 5.0602-5.744 5.0602-9.71 0-1.7783-0.4103-3.4194-1.0941-4.9238h-21.472z" fill="#CC75CC"/>
<path d="m97.975 96.463h-4.7867c0 0.4103 0.1368 0.9573 0.1368 1.3676 0 3.9662-2.0515 7.5222-5.0602 9.7102-0.9574 1.094-3.6926 1.778-6.8382 1.778-1.0941 0-2.1882-0.137-3.1455-0.274 0.547 0.684 1.2308 1.368 2.0514 1.915 0.9573 1.231 3.6926 1.915 6.9749 1.915 3.1456 0 5.8808-0.684 6.8382-1.778 3.0088-2.188 5.0602-5.744 5.0602-9.71-0.1368-1.7783-0.5471-3.5562-1.2309-4.9238z" fill="#530254" opacity=".3"/>
<path d="m97.975 96.326c0 1.2308-4.7867 2.3249-10.668 2.3249s-10.668-1.0941-10.668-2.3249c0-1.2309 4.7867-2.325 10.668-2.325 5.8808 0.1368 10.668 1.0941 10.668 2.325z" fill="#A44AA0"/>
<path d="m87.17 98.925c-5.4706 0-11.078-0.9574-11.078-2.5985 0-1.6412 5.6072-2.5985 11.078-2.5985 5.4705 0 11.078 0.9573 11.078 2.5985 0 1.6411-5.6073 2.5985-11.078 2.5985zm0-4.5132c-2.8721 0-5.4706 0.2735-7.522 0.6838-2.325 0.5471-2.872 1.0941-2.872 1.3676 0 0.2736 0.547 0.8206 2.872 1.3677 2.0514 0.4103 4.6499 0.6838 7.522 0.6838 2.872 0 5.4705-0.2735 7.5219-0.6838 2.325-0.5471 2.872-1.0941 2.872-1.3677 0-0.2735-0.547-0.8205-2.872-1.3676-1.9147-0.547-4.6499-0.6838-7.5219-0.6838z" fill="#E3B0EA"/>
<path d="m93.735 97.831s-2.872-1.3676-6.4279-1.3676c-3.5558 0-6.4278 1.3676-6.4278 1.3676s3.2823 0.5471 6.4278 0.5471c3.4191 0 6.4279-0.5471 6.4279-0.5471z" fill="#933D12"/>
<path d="m79.101 99.745c-2.7353 1.3676-2.1883 5.3336 0 6.2916 2.1882 0.957 4.1028-0.958 4.5131-3.009 0.2736-1.368-2.7352-4.1032-4.5131-3.2826z" fill="#E3B0EA" opacity=".7"/>
<path d="m87.17 98.514c-2.4618-4.5132-4.1029-13.403-4.9235-19.967-0.9573-7.9322-1.3676-15.317-1.3676-17.642 0-2.4617 0.4103-4.9235 0.6838-7.3852 0.4103-2.5985 0.8206-5.4705 0.6838-8.2058 0-0.6838-0.1368-1.5044-0.1368-2.1882-0.1367-2.7353-0.4102-5.744 0.2736-8.4793 0.4103-1.7779 1.2308-3.5558 2.1882-5.3338 0.6838-1.3676 1.3676-2.7352 1.7779-3.9661l0.547 0.1368c-0.4102 1.3676-1.0941 2.5985-1.7779 4.1029-0.8206 1.7779-1.6411 3.5558-2.0514 5.197-0.6838 2.5985-0.4103 5.4705-0.2735 8.2057 0 0.6839 0.1367 1.5044 0.1367 2.325 0.1368 2.7353-0.2735 5.6073-0.6838 8.2058-0.4103 2.325-0.8206 4.7867-0.6838 7.2484 0.1368 5.8808 1.7779 29.404 6.2911 37.336l-0.6838 0.4103z" fill="#104414"/>
<path d="m86.076 27.124c-1.5044-8.069 2.872-10.804 6.0176-12.035 0 0 1.5044 4.7867-0.2735 7.522-2.5985 3.9661-5.7441 4.5131-5.7441 4.5131z" fill="#7DB538"/>
<path d="m86.076 27.261c-0.6838-3.6926-0.2736-6.5646 1.2308-8.7528 1.0941-1.5044 2.5985-2.5985 4.7867-3.5559h0.1368v0.1368c0 0.1367 1.5044 4.9234-0.2735 7.6587-2.5985 3.8294-5.6073 4.5132-5.8808 4.5132zm6.0175-12.035c-4.9234 2.0515-6.8381 5.8808-5.8808 11.625 0.5471-0.1368 3.2823-1.0941 5.4706-4.3764 1.6411-2.325 0.547-6.4279 0.4102-7.2485z" fill="#234F1B"/>
<path d="m72.4 46.271c2.7352-2.7353 9.1631 3.5558 9.2999 8.8896-0.1368-0.6839 0.8205-2.7353 0.547-3.6926-0.2735-1.0941-2.1882-4.65-2.872-5.7441-2.0515-3.4191-3.2823-4.5132-7.522-3.9661l0.5471 4.5132z" fill="#2E6525"/>
<path d="m81.426 55.024v-0.2736c-0.1368-1.9147-1.0941-4.2396-2.7353-6.1543-1.5044-1.7779-3.4191-3.0088-4.7867-3.0088-0.5471 0-1.0941 0.2735-1.5044 0.6838l-0.1368 0.1368-0.547-4.9235h0.1367c0.6839-0.1367 1.3677-0.1367 1.9147-0.1367 2.8721 0 3.9662 1.3676 5.7441 4.1028 0.6838 1.0941 2.4617 4.7867 2.872 5.8809 0.1368 0.547-0.1368 1.3676-0.2735 2.1882-0.1368 0.4103-0.2736 0.9573-0.2736 1.2308v0.2736h-0.4102zm-7.522-9.5735c1.5044 0 3.2823 1.0942 4.9235 3.0088 1.3676 1.6412 2.4617 3.6926 2.7352 5.4706 0-0.1368 0.1368-0.2736 0.1368-0.4103 0.1367-0.6839 0.4103-1.6412 0.2735-2.0515-0.2735-1.0941-2.1882-4.6499-2.872-5.744-1.6412-2.7353-2.7353-3.9662-5.4705-3.9662-0.5471 0-1.0941 0-1.6412 0.1368l0.5471 4.2397c0.4103-0.5471 0.8205-0.6839 1.3676-0.6839z" fill="#14300E"/>
<path d="m79.786 47.229c-3.4191-8.069-6.4279 1.3676-10.257 2.0515-4.7868 0.8205-8.8896-3.9662-12.992-2.1883 3.2823-3.8293 5.3337-10.668 11.488-9.9837 4.7867 0.5471 10.941 7.1117 10.941 7.1117l0.8206 3.0088z" fill="#6E953F"/>
<path d="m68.434 49.553c-1.9147 0-3.6926-0.6838-5.3337-1.3676-1.6412-0.6838-3.1456-1.2309-4.65-1.2309-0.6838 0-1.2308 0.1368-1.7779 0.4103l-0.5471 0.1368 0.2736-0.4103c0.8205-0.9573 1.6411-2.1882 2.4617-3.4191 2.0514-3.2823 4.2397-6.7013 8.3425-6.7013h0.8206c4.7867 0.547 10.804 6.8381 11.078 7.1116l0.8206 3.1456-0.2735 0.1367c-0.9574-2.1882-1.7779-3.2823-2.872-3.2823-1.0942 0-2.1883 1.2309-3.4191 2.4618-1.2309 1.2308-2.4618 2.5985-3.8294 2.872-0.4103 0-0.8206 0.1367-1.0941 0.1367zm-9.9837-3.0087c1.5044 0 3.0088 0.6838 4.65 1.2308 1.6411 0.6838 3.419 1.3677 5.3337 1.3677 0.4103 0 0.6838 0 1.0941-0.1368 1.3676-0.2735 2.5985-1.5044 3.6926-2.7353 1.2309-1.2308 2.4617-2.4617 3.5559-2.4617 0.9573 0 1.6411 0.6838 2.4617 2.0514l-0.4103-1.7779c-0.4103-0.4103-6.2911-6.5646-10.804-6.9749h-0.8206c-3.9661 0-6.0175 3.2823-8.2057 6.5646-0.6839 1.0941-1.3677 2.1882-2.1882 3.1456 0.547-0.1368 1.0941-0.2735 1.6411-0.2735z" fill="#234F1B"/>
<path d="m67.75 37.929c-3.8293-0.5471-5.8808 3.6926-7.9322 6.5646 1.6411-0.8206 4.5131 1.6412 6.9749 0.2735 1.6411-0.8205 3.8293-6.4278 5.6073-5.3337 0 0-3.4191-1.3676-4.65-1.5044z" fill="#85B539"/>
<path d="m78.691 43.946c-1.5044-5.4705-3.1456-12.309 3.8293-14.77 0 4.3764-0.4102 7.2484-3.0087 11.078l-0.8206 3.6926z" fill="#6E953F"/>
<path d="m78.691 44.493-0.1367-0.547c-0.6839-2.5985-1.5044-5.7441-1.2309-8.4793 0.2735-3.1456 2.0514-5.197 5.197-6.2911h0.1368v0.1367c0 4.65-0.5471 7.3852-3.0088 11.078l-0.9574 4.1029zm3.5559-15.181c-6.5647 2.325-5.0603 9.0264-3.6926 14.087l0.6838-3.2823c2.5985-3.5558 3.0088-6.2911 3.0088-10.804z" fill="#234F1B"/>
<path d="m78.144 41.485c-1.5044-3.1456-3.8293-6.5646-5.0602-9.9837-1.2309-3.6926 0-6.5646 0.4103-10.394 1.0941 2.4617 4.7867 5.3338 5.6073 7.9322 1.3676 4.3765-0.9574 12.446-0.9574 12.446z" fill="#7DB538"/>
<path d="m78.281 41.895-0.1368-0.2735c-0.5471-1.2309-1.2309-2.4617-2.0514-3.8294-1.0942-2.0514-2.325-4.1028-3.0088-6.1543-0.9574-2.7352-0.5471-4.9235-0.1368-7.3852 0.1368-0.9573 0.4103-1.9147 0.4103-3.0088v-0.547l0.1368 0.4103c0.547 1.0941 1.5043 2.3249 2.5985 3.5558 1.2308 1.5044 2.4617 3.0088 3.0087 4.3764 1.3677 4.2397-0.8205 12.172-0.9573 12.445l0.1368 0.4103zm-4.65-20.241c-0.1367 0.9574-0.2735 1.7779-0.4103 2.5985-0.4103 2.4617-0.8205 4.65 0.1368 7.2484 0.6838 2.0515 1.9147 4.2397 3.0088 6.1544 0.6838 1.2308 1.3676 2.325 1.9147 3.5558 0.4103-1.5044 2.0514-8.3425 0.8205-12.035-0.4102-1.3677-1.6411-2.872-2.872-4.2397-1.2308-1.2308-2.0514-2.3249-2.5985-3.2823z" fill="#234F1B"/>
<path d="m81.29 59.537c2.3249-0.6839 3.419-3.2823 5.3337-4.5132 2.0515-1.3676 4.2397-1.9147 6.8382-1.7779-2.0515 0.8205-2.7353 3.6926-4.3764 5.197-3.9662 3.6926-7.7955 1.0941-7.7955 1.0941z" fill="#6E953F"/>
<path d="m84.435 60.631c-1.9146 0-3.1455-0.8206-3.2823-0.9574l-0.2735-0.1367 0.2735-0.1368c1.3677-0.4103 2.325-1.5044 3.2823-2.4617 0.6839-0.6839 1.2309-1.3677 2.0515-1.9147 1.7779-1.2309 3.6926-1.7779 6.0175-1.7779h0.8206 0.5471l-0.5471 0.2735c-1.2308 0.547-1.9147 1.6411-2.5985 2.872-0.547 0.8206-0.9573 1.6412-1.6411 2.325-1.3677 1.2308-3.0088 1.9147-4.65 1.9147zm-2.872-0.9574c0.4103 0.2735 1.5044 0.6838 2.872 0.6838 1.6412 0 3.1456-0.6838 4.5132-1.9147 0.6838-0.547 1.0941-1.3676 1.6412-2.1882 0.6838-1.0941 1.2308-2.0514 2.3249-2.7352h-0.2735c-2.325 0-4.1029 0.547-5.8808 1.7779-0.6838 0.5471-1.3676 1.2309-1.9147 1.9147-1.0941 0.9573-1.9147 1.9147-3.2823 2.4617z" fill="#234F1B"/>
<path d="m82.794 48.87c2.4617-3.0088 0.4103-6.2911 0.9573-9.5734 0.4103-2.5985 3.4191-7.1117 5.6073-8.6161 0.1368-0.2735 0.1368-0.2735 0 0-0.5471 6.4279 1.2309 11.351-4.3764 16.275l-2.1882 1.9147z" fill="#2E6525"/>
<path d="m82.931 49.006-0.1367-0.1367c1.5044-1.9147 1.2308-3.8294 0.9573-5.8808-0.1368-1.2309-0.2735-2.4618-0.1368-3.6926 0.4103-2.5985 3.2824-6.9749 5.6073-8.6161 0.1368-0.1368 0.1368-0.1368 0.2736-0.1368h0.1367c0 0.1368 0 0.1368-0.1367 0.2736-0.1368 1.5044-0.1368 3.0087-0.1368 4.3764 0 4.3764 0 8.069-4.2397 11.898l-2.1882 1.9146zm6.1544-18.053c-2.1882 1.6412-4.9235 5.8808-5.3338 8.3426-0.2735 1.2308 0 2.4617 0.1368 3.6926 0.2735 1.7779 0.4103 3.5558-0.5471 5.197l1.5044-1.2309c4.1029-3.6926 4.1029-7.3852 4.1029-11.625 0-1.5044 0-2.872 0.1368-4.3764z" fill="#14300E"/>
<path d="m81.016 61.452c-0.5471-3.8294 2.0514-6.7014 3.8294-8.6161 0.547-0.5471 0.9573-1.0941 1.2308-1.5044l0.4103 0.2735c-0.2735 0.4103-0.6838 0.9574-1.2309 1.5044-1.7779 1.9147-4.2396 4.65-3.6926 8.2058l-0.547 0.1368z" fill="#234F1B"/>
<path d="m83.888 71.299c1.9147-1.5044 2.0514-4.2397 3.4191-6.0176 1.5044-2.0514 3.419-3.2823 5.744-3.9661-1.6412 1.5044-1.2309 4.3764-2.325 6.4278-2.4617 4.7868-6.8381 3.5559-6.8381 3.5559z" fill="#6E953F"/>
<path d="m84.982 71.572c-0.6838 0-1.0941-0.1368-1.2309-0.1368h-0.2735l0.2735-0.1367c1.0941-0.8206 1.6412-2.1882 2.1882-3.5559 0.2736-0.8205 0.6839-1.7779 1.2309-2.5985 1.3676-1.9146 3.2823-3.2823 5.8808-4.1028l0.5471-0.1368-0.4103 0.4103c-0.9574 0.8206-1.2309 2.1882-1.5044 3.5558-0.1368 0.9574-0.4103 1.9147-0.8206 2.7353-1.6411 3.419-4.3764 3.9661-5.8808 3.9661zm-0.8206-0.2735h0.8206c1.3676 0 3.9661-0.5471 5.744-3.6926 0.4103-0.8206 0.5471-1.7779 0.8206-2.7353 0.2735-1.2309 0.4103-2.4617 1.2309-3.4191-2.325 0.8206-3.9661 2.0515-5.3338 3.8294-0.547 0.6838-0.8205 1.5044-1.2308 2.4617-0.5471 1.3677-0.9574 2.5985-2.0515 3.5559z" fill="#234F1B"/>
<path d="m82.247 68.29c-0.8205-0.5471-2.0514 0-3.0088-0.1368-1.0941-0.1368-1.7779-0.8206-2.4617-1.6411 0.8206 0.4102 2.0515-0.4103 3.0088-0.4103 2.325 0 2.4617 2.1882 2.4617 2.1882z" fill="#6E953F"/>
<path d="m82.384 68.564-0.2735-0.1367c-0.2736-0.1368-0.5471-0.2736-0.8206-0.2736s-0.5471 0-0.8206 0.1368c-0.2735 0-0.547 0.1368-0.8206 0.1368h-0.4103c-1.0941-0.1368-1.7779-0.6839-2.5985-1.778l-0.2735-0.4102 0.4103 0.1367c0.1368 0 0.2735 0.1368 0.4103 0.1368 0.4103 0 0.8206-0.1368 1.2309-0.2735 0.4102-0.1368 0.8205-0.2736 1.2308-0.2736 2.4618 0 2.5985 2.325 2.5985 2.4618l0.1368 0.1367zm-5.197-1.7779c0.547 0.8206 1.3676 1.2309 2.1882 1.3676h0.4103c0.2735 0 0.547 0 0.8206-0.1367 0.2735 0 0.547-0.1368 0.8205-0.1368 0.2736 0 0.5471 0 0.8206 0.1368-0.1367-0.5471-0.547-1.9147-2.3249-1.9147-0.4103 0-0.8206 0.1368-1.2309 0.2735-0.4103 0.1368-0.8206 0.2735-1.2309 0.2735-0.1367 0.1368-0.2735 0.1368-0.2735 0.1368z" fill="#234F1B"/>
<path d="m78.828 113.56c2.0514 0 3.5558-1.915 5.3338-2.462 2.0514-0.684 3.9661-0.547 5.8808 0.137-1.9147 0.273-3.0088 2.461-4.65 3.282-4.1029 2.051-6.5646-0.957-6.5646-0.957z" fill="#6E953F"/>
<path d="m82.52 115.34c-2.3249 0-3.8293-1.641-3.8293-1.641l-0.1368-0.137h0.2735c1.2309 0 2.1883-0.684 3.1456-1.367 0.6838-0.411 1.3676-0.958 2.0514-1.094 0.9574-0.274 1.9147-0.411 2.8721-0.411 0.9573 0 2.0514 0.137 3.2823 0.547l0.547 0.137-0.547 0.137c-1.0941 0.137-1.9147 0.957-2.7353 1.778-0.547 0.547-1.2309 1.094-1.9147 1.504-1.0941 0.274-2.0514 0.547-3.0088 0.547zm-3.419-1.641c0.4103 0.41 1.6411 1.368 3.419 1.368 0.9574 0 1.9147-0.274 2.8721-0.684 0.6838-0.41 1.2308-0.957 1.7779-1.505 0.6838-0.683 1.5044-1.367 2.4617-1.777-0.9573-0.274-1.7779-0.411-2.7352-0.411-0.9574 0-1.778 0.137-2.7353 0.411-0.6838 0.273-1.3676 0.683-2.0514 1.094-0.8206 0.683-1.9147 1.367-3.0088 1.504z" fill="#234F1B"/>
<path d="m93.598 50.237c7.3855-4.5132 6.1544-11.898 12.446-12.992-2.872-3.8293-9.0264-3.8293-12.992-2.872-2.325 0.6838-6.5647 4.7867-7.2485 7.1117-2.0514 6.2911 0.8206 9.1631-0.4103 10.941-0.1367 0 4.1029 0.2736 8.2058-2.1882z" fill="#6E953F"/>
<path d="m85.666 52.562h-0.4103-0.2735l0.1367-0.1367c0.5471-0.6839 0.2736-1.5044 0-2.7353-0.4102-1.9147-0.9573-4.3764 0.2736-8.069 0.6838-2.1882 4.9234-6.5646 7.3852-7.2485 1.5044-0.4102 3.1455-0.547 4.6499-0.547 3.8293 0 6.8383 1.2309 8.4793 3.5558l0.137 0.1368h-0.137c-3.146 0.547-4.376 2.872-5.881 5.4705-1.3674 2.4617-2.8718 5.3338-6.4276 7.522-3.2824 1.7779-6.5647 2.0514-7.9323 2.0514zm-0.1368-0.2735h0.2736c1.2308 0 4.6499-0.2735 7.7955-2.1882 3.5558-2.1882 5.0602-4.9235 6.4276-7.522 1.368-2.5985 2.599-4.9234 5.881-5.6073-2.188-2.872-6.0176-3.2823-8.069-3.2823-1.5044 0-3.1455 0.1368-4.6499 0.5471-2.4618 0.6838-6.4279 4.9234-7.2485 6.9749-1.2308 3.6926-0.6838 6.1543-0.2735 7.9322 0 1.5044 0.2735 2.4618-0.1368 3.1456z" fill="#234F1B"/>
<path d="m103.44 36.288c-2.188-1.5044-7.2482-2.0515-10.394-0.8206-4.5132 1.9147-4.2397 6.1543-5.3338 9.9837 1.2309-3.0088 2.8721-3.2823 5.6073-3.9661 2.4617-0.5471 4.9235-3.0088 6.1543-3.9662 0.6839-0.6838 3.9659-1.2308 3.9659-1.2308z" fill="#85B539"/>
<path d="m86.35 51.468c0-0.1367 0.1367-0.1367 0.1367-0.2735 0.1368-0.1367 0.2735-0.4103 0.4103-0.547 0.1368-0.2736 0.4103-0.5471 0.8206-0.8206 0.2735-0.2735 0.6838-0.5471 1.2309-0.8206 0.4102-0.2735 0.9573-0.547 1.5043-0.8206 0.5471-0.2735 1.0942-0.547 1.778-0.8205 0.547-0.2736 1.2308-0.5471 1.9146-0.9574 0.5471-0.4103 1.2309-0.6838 1.778-1.2309 0.547-0.547 0.9573-1.0941 1.3676-1.6411 0.4103-0.5471 0.8206-1.2309 1.0941-1.7779 0.4103-0.5471 0.6838-1.0941 1.0941-1.6412 0.4103-0.547 0.6839-0.9573 1.0939-1.3676 0.137-0.1368 0.41-0.4103 0.547-0.5471 0.137-0.1367 0.411-0.2735 0.547-0.4103 0.411-0.2735 0.684-0.4102 1.094-0.547 0.274-0.1368 0.547-0.1368 0.684-0.1368h0.137-0.137c-0.137 0-0.41 0.1368-0.684 0.2736-0.273 0.1367-0.683 0.2735-0.957 0.547-0.41 0.2735-0.684 0.5471-1.094 0.9574-0.41 0.4102-0.684 0.8205-1.0941 1.3676-0.4103 0.547-0.6838 1.0941-1.0941 1.6411-0.4103 0.5471-0.6839 1.2309-1.0941 1.778-0.4103 0.547-0.8206 1.2308-1.3677 1.7779-0.547 0.547-1.0941 0.9573-1.7779 1.2308-0.6838 0.4103-1.2309 0.6839-1.9147 0.9574s-1.2308 0.547-1.7779 0.8206c-0.547 0.2735-1.0941 0.547-1.5044 0.8205-0.4103 0.2736-0.8206 0.5471-1.2309 0.8206-0.4102 0.2735-0.6838 0.5471-0.8205 0.8206-0.1368 0.2735-0.4103 0.4103-0.4103 0.547-0.1368-0.1367-0.1368 0-0.2735 0z" fill="#104414"/>
<path d="m86.487 50.237v-0.5471c0-0.2735 0.1367-0.547 0.1367-0.9573 0.1368-0.4103 0.2736-0.6838 0.4103-1.0941 0.1368-0.1368 0.2736-0.4103 0.4103-0.5471 0.1368-0.1367 0.2735-0.4103 0.4103-0.547 0.2735-0.4103 0.6838-0.8206 1.0941-1.2309s0.8206-0.6838 1.3676-1.0941c0.2736-0.1368 0.5471-0.2735 0.6838-0.4103 0.2736-0.1368 0.5471-0.2735 0.8206-0.4103 0.5471-0.2735 1.0941-0.4103 1.6412-0.6838 0.547-0.2735 1.0941-0.4103 1.5044-0.6838 0.547-0.2735 0.9573-0.5471 1.3676-0.6838 0.4103-0.2736 0.8206-0.5471 1.0941-0.8206s0.6838-0.5471 0.9574-0.8206c0.2735-0.2735 0.4102-0.4103 0.6838-0.6838 0.1367-0.1368 0.2735-0.4103 0.4102-0.4103 0 0-0.1367 0.1368-0.1367 0.2735 0 0.1368-0.1368 0.1368-0.1368 0.2736-0.1367 0.1367-0.4103 0.4103-0.547 0.6838-0.2736 0.2735-0.5471 0.547-0.8206 0.8206-0.2735 0.2735-0.6838 0.547-1.0941 0.8205-0.4103 0.2736-0.8206 0.5471-1.3676 0.8206-0.5471 0.2735-0.9574 0.5471-1.5044 0.6838-0.5471 0.2736-1.0941 0.4103-1.6412 0.6838-0.2735 0.1368-0.547 0.2736-0.8206 0.4103-0.2735 0.1368-0.547 0.2736-0.6838 0.4103-0.2735 0.1368-0.4103 0.2735-0.6838 0.5471-0.2735 0.1367-0.4103 0.4103-0.6838 0.547-0.4103 0.4103-0.8206 0.6838-1.0941 1.0941s-0.5471 0.8206-0.8206 1.0941c-0.2735 0.4103-0.4103 0.6838-0.547 1.0941-0.1368 0.2736-0.1368 0.6838-0.2736 0.8206 0 0.2735-0.1367 0.4103-0.1367 0.5471z" fill="#104414"/>
<path d="m89.769 88.668c4.7867-2.4617 4.3764-7.2484 8.4793-7.6587-1.6411-2.5985-5.4705-2.872-8.069-2.325-1.5044 0.2736-4.3764 2.7353-4.9235 4.2397-1.6411 3.8294 0.1368 5.8808-0.6838 6.8381-0.1367-0.1367 2.4618 0.2736 5.197-1.0941z" fill="#6E953F"/>
<path d="m85.256 89.762h-0.9573-0.2735l0.1367-0.1367c0.2736-0.4103 0.2736-0.9574 0.1368-1.778-0.1368-1.2308-0.4103-2.872 0.5471-5.1969 0.547-1.3677 3.419-3.9662 5.0602-4.2397 0.6838-0.1368 1.3676-0.1368 2.1882-0.1368 2.7353 0 4.9235 0.9574 6.0176 2.5985l0.1367 0.1368h-0.1367c-2.0515 0.2735-2.8721 1.6412-3.9662 3.1455-0.9573 1.5044-2.0514 3.2824-4.5131 4.5132-1.5044 0.9574-3.2824 1.0941-4.3765 1.0941zm-0.6838-0.2735h0.6838c1.0941 0 2.7353-0.1368 4.3765-1.0941 2.3249-1.2309 3.419-2.872 4.3764-4.3764 0.9573-1.6412 1.9147-3.0088 3.8293-3.2823-1.0941-1.5044-3.1455-2.325-5.744-2.325-0.6838 0-1.5044 0-2.0514 0.1368-1.5044 0.2735-4.2397 2.7352-4.7868 4.1029-0.9573 2.1882-0.6838 3.8293-0.547 5.0602 0.1368 0.8206 0.1368 1.3676-0.1368 1.7779z" fill="#234F1B"/>
<path d="m96.607 80.188c-1.2308-1.0941-4.5132-1.6411-6.5646-0.9573-3.0088 0.9573-2.872 3.6926-3.8294 6.0175 0.8206-1.9146 1.9147-1.9146 3.6926-2.1882 1.6412-0.2735 3.2823-1.7779 3.9662-2.1882 0.547-0.4103 2.7352-0.6838 2.7352-0.6838z" fill="#85B539"/>
<path d="m85.119 89.078s0-0.1368 0.1368-0.1368c0-0.1367 0.1367-0.2735 0.2735-0.4103l0.547-0.547c0.2736-0.1368 0.5471-0.2735 0.8206-0.5471 0.2735-0.1367 0.6838-0.2735 0.9574-0.4102 0.4102-0.1368 0.6838-0.2736 1.0941-0.4103 0.4102-0.1368 0.8205-0.2736 1.2308-0.5471 0.4103-0.1367 0.8206-0.4103 1.0941-0.6838 0.2736-0.2735 0.6838-0.6838 0.9574-0.9573 0.2735-0.4103 0.547-0.6839 0.8205-1.0941 0.2736-0.4103 0.5471-0.6839 0.8206-0.9574 0.2736-0.2735 0.5471-0.547 0.8206-0.8206 0.2735-0.2735 0.5471-0.4103 0.8206-0.547 0.2735-0.1368 0.547-0.2735 0.6838-0.2735s0.4103 0 0.4103-0.1368h0.1367-0.1367c-0.1368 0-0.2735 0-0.4103 0.1368-0.1368 0-0.4103 0.1367-0.6838 0.2735-0.2735 0.1367-0.5471 0.2735-0.6838 0.547-0.2736 0.2736-0.5471 0.5471-0.6838 0.8206-0.2736 0.2735-0.5471 0.6838-0.6839 0.9574-0.2735 0.4102-0.547 0.6838-0.8205 1.0941-0.2736 0.4102-0.5471 0.6838-0.9574 1.0941-0.4103 0.2735-0.8206 0.547-1.2308 0.6838-0.4103 0.1367-0.8206 0.4103-1.2309 0.547-0.4103 0.1368-0.8206 0.2736-1.0941 0.4103-0.4103 0.1368-0.6838 0.2735-0.9574 0.4103-0.2735 0.1368-0.547 0.2735-0.8205 0.4103-0.2736 0.1368-0.4103 0.2735-0.5471 0.4103l-0.6838 0.6838c0.1368 0 0.1368 0 0 0z" fill="#104414"/>
<path d="m85.256 88.394v-0.547c0-0.1368 0.1368-0.4103 0.1368-0.5471 0.1368-0.2735 0.1368-0.4103 0.2735-0.6838 0.1368-0.2735 0.2736-0.547 0.5471-0.6838 0.2735-0.2735 0.4103-0.5471 0.6838-0.6838 0.2735-0.2735 0.547-0.4103 0.9573-0.6838 0.1368-0.1368 0.2736-0.1368 0.5471-0.2736 0.1367-0.1367 0.4103-0.1367 0.547-0.2735 0.4103-0.1367 0.6839-0.2735 1.0941-0.4103 0.2736-0.1367 0.6839-0.2735 0.9574-0.4103 0.2735-0.1367 0.6838-0.2735 0.9573-0.4103 0.2735-0.1367 0.5471-0.2735 0.8206-0.4102 0.2735-0.1368 0.4103-0.2736 0.547-0.4103l0.4103-0.4103c0.1368-0.1368 0.1368-0.1368 0.2736-0.2735l0.1367-0.1368-0.1367 0.1368c0 0.1367-0.1368 0.1367-0.2736 0.2735l-0.4103 0.4103c-0.1367 0.1367-0.4102 0.2735-0.547 0.547-0.2735 0.1368-0.5471 0.2735-0.8206 0.5471-0.2735 0.1367-0.547 0.2735-0.9573 0.4103-0.2735 0.1367-0.6838 0.2735-0.9574 0.4103-0.2735 0.1367-0.6838 0.2735-1.0941 0.4102-0.1367 0-0.4103 0.1368-0.547 0.1368-0.1368 0.1368-0.2735 0.1368-0.5471 0.2735-0.1367 0.1368-0.2735 0.1368-0.4103 0.2736-0.1367 0.1367-0.2735 0.1367-0.4102 0.2735-0.2736 0.2735-0.5471 0.4103-0.6839 0.6838-0.2735 0.2735-0.4102 0.4103-0.547 0.6838s-0.2735 0.4103-0.4103 0.6838c-0.1368 0.1368-0.1368 0.4103-0.1368 0.5471v0.547z" fill="#104414"/>
<path d="m56.125 47.228c4.1029-3.9661 8.4794 1.3676 12.856-0.9574 1.7779-0.9573 2.4617-3.0087 4.6499-3.5558 2.872-0.8206 4.2397 0.8206 5.4705 2.872-2.7352-4.2396-6.0175 1.5044-8.3425 3.1456-4.5132 3.1455-7.6587-1.6412-11.625-1.6412-0.8205-0.1367-3.0088 0.1368-3.0088 0.1368z" fill="#2E6525" opacity=".5"/>
<path d="m86.213 26.851c3.2823-4.1029 5.7441-6.4279 5.7441-11.351 1.7779 3.5558 0.547 8.3425-3.0088 9.9836l-2.7353 1.3677z" fill="#2E6525" opacity=".7"/>
<path d="m100.62 74.03-1.9667 2.7971 9.5107 6.6855 1.966-2.7972-9.51-6.6854z" fill="#43405A"/>
<path d="m125.87 89.625c1.094 0.8205 1.368 2.4617 0.684 3.5558l-0.957 1.3676c-0.821 1.0941-2.462 1.3676-3.556 0.6838l-16.822-11.898c-1.094-0.8206-1.368-2.4618-0.684-3.5559l0.958-1.3676c0.82-1.0941 2.461-1.3676 3.555-0.6838l16.822 11.898z" fill="#44B4A6"/>
<path d="m105.36 78.41s5.06 3.0088 12.309 8.069c6.838 4.7867 8.205 7.3852 8.205 7.3852l0.411-0.6838c0.82-1.0941 0.547-2.7353-0.684-3.5558l-16.822-11.898c-0.957-0.6838-2.599-0.4103-3.419 0.6838z" fill="#40A395"/>
<path d="m102.76 73.077c-0.41 1.2309-0.957 2.325-1.778 3.2823-4.5127 6.4279-13.539 8.069-19.967 3.4191-5.3338-3.6926-7.3852-10.531-5.197-16.548 0.4103-1.2309 0.9573-2.325 1.7779-3.2823 4.5132-6.4279 13.54-8.0691 19.967-3.4191 5.3336 3.5558 7.3856 10.394 5.1966 16.548zm-24.89-9.1631c-1.9146 5.197 0 10.941 4.3765 14.087 5.4705 3.8293 13.129 2.5985 16.959-3.0088 0.6838-0.8206 1.0944-1.7779 1.5044-2.872 1.915-5.197 0-10.941-4.3765-14.087-5.4705-3.8294-13.129-2.5985-16.959 3.0088-0.547 0.9573-1.0941 1.9147-1.5044 2.872z" fill="#2E415F"/>
<g opacity=".5">
<path d="m96.607 57.759c5.7439 3.9661 7.1119 11.898 3.1455 17.642-3.9661 5.7441-11.898 7.1117-17.642 3.1456s-7.1117-11.898-3.1456-17.642c3.9662-5.8808 11.898-7.2485 17.642-3.1456z" fill="#fff"/>
</g>
<g opacity=".7">
<path d="m81.563 62.683s6.5646-7.1117 15.454-0.8206c1.7779 1.3677-3.0088-4.6499-7.3852-4.6499-5.4705-0.1368-8.069 5.4705-8.069 5.4705z" fill="#fff"/>
</g>
<path d="m68.708 112.33c0.4103 0.82 0.5471 1.641 0.6838 2.461 0.6838 5.334-3.6926 10.668-9.7102 11.899-4.9234 1.094-9.7101-0.958-11.488-4.787-0.4103-0.82-0.5471-1.641-0.6839-2.462-0.6838-5.333 3.6926-10.667 9.7102-11.898 4.9235-1.094 9.7102 0.957 11.488 4.787zm-19.01 8.889c1.5044 3.283 5.6073 5.061 9.7102 4.103 5.197-1.094 8.8896-5.607 8.3426-10.12-0.1368-0.684-0.2736-1.368-0.5471-2.052-1.5044-3.282-5.6073-5.06-9.7102-4.103-5.197 1.094-8.8896 5.608-8.3425 10.121 0 0.684 0.2735 1.367 0.547 2.051z" fill="#2E415F"/>
<g opacity=".5">
<path d="m57.356 108.64c5.3337-1.094 10.257 1.778 10.804 6.428 0.547 4.65-3.2824 9.437-8.6161 10.667-5.3338 1.095-10.257-1.777-10.804-6.427-0.6838-4.787 3.2823-9.574 8.6161-10.668z" fill="#fff"/>
</g>
<path d="m84.435 131.61 6.9749-0.273 0.9574-0.274-0.8206-3.009-0.8206 0.274-6.4278 2.735 0.1367 0.547z" fill="#FFCF9C"/>
<path d="m84.435 131.61 7.7955-1.094-0.4103-1.778-7.5219 2.325 0.1367 0.547z" fill="#ECBA84"/>
<path d="m91.82 130.24-6.1544 0.957-1.2308 0.547 7.2484-0.41 0.4103-0.137-0.2735-0.957z" fill="#C6794D"/>
<path d="m85.803 131.61-2.872 0.137 3.5558-1.641-0.2735 0.821-0.4103 0.683z" fill="#A44AA0"/>
<path d="m82.931 131.75 3.1455-0.547-0.1367 0.41-3.0088 0.137z" fill="#530254"/>
<path d="m82.931 131.61 3.5558-1.231v-0.273l-3.5558 1.504z" fill="#C499C8"/>
<path d="m92.094 131.2-0.1367-0.684-0.4103-1.778s-0.6838 0.137-0.8206-0.137c-0.1368-0.273 0.547-0.547 0.547-0.547l39.251-9.3 0.821 0.548 0.41 1.504-0.547 0.957-39.114 9.437z" fill="#C499C8"/>
<path d="m131.48 119.3 0.41 1.504-39.935 9.573s-0.8206 0-0.9573-0.547c-0.1368-0.683 0.6838-0.957 0.6838-0.957l39.798-9.573z" fill="#A44AA0"/>
<path d="m131.34 121.76 0.547-1.094-39.935 9.574s-0.6838 0.136-0.547 0.683c0 0.411 0.8205 0.274 0.8205 0.274l39.114-9.437z" fill="#753877"/>
</svg>
